<?xml version="1.0" standalone="no"?>
<!DOCTYPE svg PUBLIC "-//W3C//DTD SVG 20010904//EN"
 "http://www.w3.org/TR/2001/REC-SVG-20010904/DTD/svg10.dtd">
<svg version="1.0" xmlns="http://www.w3.org/2000/svg"
 width="322.000000pt" height="322.000000pt" viewBox="0 0 322.000000 322.000000"
 preserveAspectRatio="xMidYMid meet">
<metadata>
Created by potrace 1.11, written by Peter Selinger 2001-2013
</metadata>
<g transform="translate(0.000000,322.000000) scale(0.100000,-0.100000)"
fill="#000000" stroke="none">
<path d="M1100 2910 c-13 -8 -13 -12 -1 -32 8 -13 28 -44 43 -69 35 -55 46
-136 29 -205 -8 -33 -34 -74 -85 -138 -66 -82 -96 -136 -96 -171 0 -16 98
-166 119 -183 14 -11 14 -12 -4 -10 -11 2 -23 8 -27 13 -12 15 -10 -7 2 -25 7
-11 10 -11 10 -2 0 7 4 10 10 7 5 -3 -7 -24 -27 -46 -39 -42 -56 -50 -47 -21
5 14 4 14 -4 2 -6 -8 -8 -18 -6 -22 3 -5 -2 -11 -10 -14 -9 -3 -16 -12 -16
-20 0 -8 -7 -14 -16 -14 -9 0 -12 -5 -8 -12 5 -7 3 -8 -5 -4 -8 6 -11 2 -9
-10 2 -13 -3 -19 -15 -17 -15 1 -17 -4 -12 -24 5 -23 5 -24 -10 -9 -9 9 -14
20 -10 25 3 6 -5 15 -17 21 -21 10 -22 10 -5 -3 10 -9 14 -18 9 -21 -5 -3 -15
1 -22 9 -7 8 -20 15 -29 15 -14 0 -14 2 -1 10 8 5 10 10 5 10 -6 0 -11 25 -13
55 -3 64 -24 114 -72 174 -76 94 -192 143 -263 110 -35 -16 -74 -101 -61 -136
15 -43 31 -38 63 19 37 65 56 77 97 66 39 -10 114 -81 114 -108 0 -11 5 -20
10 -20 6 0 10 -8 10 -18 0 -10 6 -24 13 -31 10 -11 10 -13 0 -7 -7 4 -13 3
-13 -3 0 -5 5 -11 12 -13 6 -2 12 -25 12 -51 1 -26 4 -47 9 -47 4 0 7 -5 7
-11 0 -5 -6 -7 -12 -4 -7 3 -4 0 6 -7 11 -7 26 -20 35 -28 9 -8 27 -16 41 -16
14 -1 32 -2 40 -3 12 -1 15 -12 14 -48 -1 -27 -3 -61 -3 -77 -1 -20 -5 -27
-16 -23 -8 4 -17 1 -21 -5 -4 -7 -3 -8 4 -4 7 4 12 2 12 -4 0 -6 4 -8 10 -5 5
3 10 -1 10 -10 0 -9 7 -23 16 -32 12 -12 14 -30 10 -81 -6 -63 -19 -88 -40
-75 -5 3 -6 1 -2 -5 4 -6 12 -9 19 -6 9 3 12 -8 11 -38 -2 -62 -2 -65 -21 -65
-26 0 -43 16 -36 34 4 10 2 14 -4 10 -6 -4 -16 -1 -22 6 -8 10 -7 14 4 14 8 0
11 -5 8 -10 -3 -6 -1 -7 5 -3 17 11 14 19 -15 40 -14 11 -23 14 -19 8 4 -7 1
-12 -9 -12 -9 0 -14 4 -10 9 3 5 1 12 -4 15 -5 4 -8 -1 -7 -11 2 -9 11 -20 22
-24 13 -5 14 -8 4 -8 -12 -1 -12 -3 -2 -10 7 -4 12 -12 11 -17 -4 -22 2 -35
14 -29 6 4 1 -3 -13 -15 -14 -12 -19 -19 -12 -15 6 3 12 1 12 -6 0 -6 -8 -9
-20 -6 -11 3 -18 1 -14 -4 3 -5 15 -9 27 -10 12 0 16 -3 9 -6 -9 -3 -10 -9 -3
-17 5 -6 12 -25 15 -41 3 -16 12 -33 21 -38 10 -5 14 -16 9 -29 -4 -14 -2 -18
5 -14 7 5 11 -1 11 -15 0 -19 -2 -20 -17 -8 -16 13 -17 12 -5 -2 10 -14 10
-18 -3 -23 -8 -3 -15 -10 -15 -16 0 -6 10 -1 23 10 15 14 30 20 47 16 27 -5
64 16 52 29 -4 5 -1 5 6 1 6 -4 12 -16 12 -27 0 -10 5 -19 10 -19 6 0 10 -11
10 -24 0 -14 5 -28 11 -32 6 -3 9 -15 6 -25 -3 -11 -2 -17 2 -14 8 4 67 -111
60 -117 -2 -2 5 -14 17 -26 11 -12 27 -35 35 -50 8 -15 23 -33 33 -41 17 -13
18 -15 2 -26 -15 -11 -15 -13 -1 -19 9 -3 13 -2 10 4 -3 6 1 10 9 10 9 0 16
-4 16 -9 0 -4 12 -21 27 -36 16 -16 23 -25 17 -22 -7 4 -17 0 -24 -8 -6 -7
-19 -11 -27 -8 -10 4 -14 2 -9 -5 3 -6 -3 -17 -15 -25 -13 -9 -16 -17 -10 -22
6 -3 11 -3 11 1 0 4 6 0 13 -10 13 -18 14 -18 32 0 18 19 18 18 13 -3 -8 -29
29 -44 47 -19 7 8 15 13 18 9 4 -3 7 -1 7 5 0 7 11 12 25 12 14 0 25 -3 25 -8
0 -4 20 -18 44 -32 25 -13 43 -27 40 -31 -2 -4 5 -5 16 -2 17 4 19 2 13 -13
-6 -17 -5 -17 10 -5 17 13 24 3 10 -15 -5 -5 -2 -4 5 2 13 11 72 7 72 -5 0 -7
182 -6 210 1 8 2 21 7 27 11 7 5 17 5 23 2 5 -3 10 -1 10 5 0 7 7 9 17 6 10
-4 14 -4 10 0 -8 8 11 34 24 34 11 0 7 -22 -6 -33 -6 -5 -5 -7 3 -5 8 2 12 7
10 10 -2 4 6 14 17 23 16 12 17 14 3 9 -23 -8 -23 11 0 34 10 10 31 35 47 56
l29 38 18 -24 c11 -13 17 -17 16 -8 -2 8 -10 20 -18 27 -13 11 -13 14 0 23 21
14 30 12 24 -5 -4 -8 -2 -15 4 -15 14 0 9 30 -7 40 -10 6 -8 11 7 21 19 14 22
19 22 42 0 9 2 9 8 0 8 -13 38 -21 80 -22 15 -1 21 -5 16 -13 -5 -8 3 -9 29
-5 28 4 37 2 37 -9 0 -8 5 -14 10 -14 7 0 7 7 -1 21 -9 17 -8 23 2 30 8 5 10
9 4 9 -5 0 -3 5 5 10 11 7 12 10 2 10 -13 0 -42 23 -42 33 0 2 12 2 28 -1 l27
-5 -26 29 c-14 16 -31 40 -37 54 -17 35 -35 64 -47 72 -6 5 -6 8 2 8 6 0 15
-5 18 -10 3 -6 12 -10 18 -10 7 0 -1 9 -18 20 -16 11 -24 20 -16 20 8 0 11 3
8 6 -13 13 14 46 31 39 31 -12 52 -14 52 -4 0 5 -6 9 -12 8 -31 -4 -38 3 -38
36 0 19 4 35 10 35 5 0 6 -7 3 -17 -4 -11 -3 -14 5 -9 7 4 12 3 12 -3 0 -6 7
-8 15 -5 11 5 13 2 9 -10 -3 -9 -2 -16 4 -16 11 0 11 18 -1 36 -7 12 1 24 15
24 5 0 7 -4 3 -9 -3 -6 5 -15 17 -21 20 -9 21 -9 7 2 -9 7 -15 21 -13 30 1 10
-3 21 -8 25 -7 3 -8 1 -4 -5 4 -7 2 -12 -5 -12 -7 0 -9 8 -5 22 4 13 8 30 10
38 1 8 6 23 10 32 5 10 9 29 10 42 1 20 4 22 15 13 11 -10 13 -8 7 10 -4 12
-2 24 4 28 5 3 10 15 10 26 0 17 3 18 21 9 11 -7 3 6 -18 28 -22 22 -42 35
-48 31 -6 -4 -17 -4 -25 1 -8 5 -18 6 -22 4 -4 -3 -8 0 -8 5 0 6 5 11 10 11 6
0 10 5 10 11 0 5 -4 8 -9 5 -5 -4 -8 2 -6 11 1 11 10 17 21 16 18 -1 18 -1 2
11 -21 15 -20 59 1 51 11 -4 11 -3 2 9 -13 15 -7 36 9 36 5 0 7 -7 4 -15 -4
-8 -2 -15 4 -15 13 0 8 33 -6 38 -11 3 -7 48 7 67 4 5 7 17 6 25 0 8 6 18 15
22 12 5 12 7 -2 7 -10 1 -18 7 -19 14 -2 43 -11 91 -24 128 -14 39 -14 41 2
28 9 -8 14 -9 10 -2 -4 7 13 26 43 48 27 20 49 39 48 43 -4 19 28 95 46 108
11 8 16 14 10 14 -5 0 -15 -5 -21 -11 -8 -8 -16 3 -29 38 -10 26 -17 54 -16
61 2 6 -4 12 -13 12 -8 0 -15 5 -15 11 0 6 -9 22 -20 36 -16 20 -17 29 -9 40
9 10 9 12 -2 8 -9 -3 -24 12 -42 45 -69 123 12 247 185 283 91 19 194 3 273
-44 20 -12 38 -19 42 -16 9 10 -37 66 -65 81 -153 79 -389 33 -491 -95 -39
-49 -42 -56 -38 -106 3 -41 14 -69 51 -129 25 -41 44 -79 41 -85 -4 -5 2 -9
11 -9 10 0 15 -3 11 -6 -3 -4 -1 -12 6 -20 24 -26 32 -39 45 -67 14 -33 16
-83 2 -92 -5 -3 -7 -12 -3 -20 3 -8 0 -15 -7 -15 -7 0 -21 -11 -32 -25 -11
-14 -26 -25 -34 -25 -8 0 -14 -4 -14 -9 0 -5 -7 -12 -16 -15 -10 -4 -13 -2 -8
6 5 8 2 9 -10 5 -19 -7 -60 28 -51 43 3 6 -1 7 -10 3 -13 -5 -14 -7 -3 -14 7
-5 9 -9 5 -9 -4 0 -25 11 -45 25 -20 14 -32 25 -27 25 6 0 6 3 0 8 -18 13 -45
69 -37 77 4 5 -1 5 -10 2 -19 -7 -45 18 -29 27 5 3 12 0 15 -6 3 -7 3 -3 0 9
-4 19 -2 22 13 17 15 -5 15 -4 3 5 -12 8 -19 5 -33 -12 -13 -15 -20 -18 -24
-9 -2 6 -16 12 -29 12 -13 0 -24 4 -24 8 0 4 -15 9 -32 10 -18 2 -34 7 -36 12
-2 6 -8 10 -13 10 -6 0 -7 -6 -3 -12 6 -10 5 -10 -7 -1 -8 7 -25 10 -37 6 -13
-3 -22 -1 -22 6 0 6 5 10 12 8 6 -1 14 6 16 16 2 9 -1 17 -7 17 -6 0 -8 -7 -5
-15 5 -11 2 -13 -10 -9 -14 5 -14 9 0 35 16 32 55 39 87 15 19 -15 24 -31 5
-20 -7 4 -8 3 -4 -4 4 -6 14 -8 23 -5 10 4 14 2 10 -4 -4 -6 1 -14 11 -18 16
-7 15 -8 -3 -15 -19 -8 -19 -9 3 -9 12 -1 22 -5 22 -11 0 -14 13 -12 36 6 12
10 14 14 4 11 -18 -5 -54 49 -53 80 0 12 -4 20 -9 17 -4 -3 -5 -11 -1 -17 4
-7 0 -6 -10 2 -9 7 -17 21 -17 30 0 13 -2 13 -9 2 -5 -7 -10 -9 -12 -4 -2 6
-26 12 -54 15 -27 3 -44 3 -37 1 6 -3 10 -9 6 -14 -9 -14 -22 -10 -28 9 -4 14
-4 13 -4 -3 2 -24 -23 -105 -31 -105 -16 0 -71 117 -71 153 0 9 -5 17 -11 17
-5 0 -8 4 -4 9 3 5 1 12 -5 16 -6 4 -8 11 -5 16 7 11 -63 89 -81 89 -7 0 -15
6 -17 13 -4 9 -6 9 -6 0 -1 -7 -8 -10 -18 -6 -10 4 -14 2 -10 -4 4 -6 9 -39
12 -73 3 -34 8 -67 12 -73 4 -7 0 -8 -13 -4 -18 7 -18 7 0 -8 13 -10 15 -15 6
-15 -7 0 -11 -3 -7 -6 8 -8 -13 -64 -24 -64 -5 0 -9 5 -9 12 0 6 -3 8 -6 5 -4
-4 -1 -14 7 -24 12 -15 12 -16 -4 -10 -10 4 -16 3 -13 -1 8 -14 -8 -30 -38
-38 -25 -6 -28 -4 -23 10 4 9 2 16 -4 16 -6 0 -9 -10 -7 -21 2 -18 -5 -24 -39
-34 -24 -7 -43 -11 -43 -8 0 2 -7 -3 -16 -12 -9 -9 -23 -14 -30 -11 -8 3 -13
0 -11 -6 1 -6 -8 -11 -20 -13 -13 -1 -23 3 -23 9 0 6 -9 17 -21 24 -12 7 -18
16 -15 19 3 3 0 11 -7 17 -7 6 -18 23 -24 38 -10 23 -8 32 20 76 18 28 53 78
79 112 58 75 72 120 69 224 -2 90 -20 134 -80 199 -36 38 -54 44 -81 27z
m1167 -1449 c9 8 14 9 10 2 -4 -6 -1 -13 5 -16 7 -3 0 -4 -17 -2 -45 4 -45 4
-45 16 0 8 5 8 15 -1 12 -10 18 -10 32 1z m-46 -34 c-6 -8 -7 -18 -3 -22 4 -5
2 -5 -5 -1 -14 8 -6 36 9 36 7 0 6 -5 -1 -13z m49 -14 c0 -15 -2 -16 -10 -3
-9 14 -15 7 -10 -15 1 -5 -4 -4 -12 3 -11 11 -10 14 2 22 22 14 30 12 30 -7z
m34 2 c-4 -8 -8 -15 -10 -15 -2 0 -4 7 -4 15 0 8 4 15 10 15 5 0 7 -7 4 -15z
m-1381 -29 c3 -8 -2 -20 -11 -27 -14 -11 -15 -11 -5 0 6 7 9 20 6 27 -3 8 -3
14 0 14 3 0 7 -6 10 -14z m1357 -6 c-8 -5 -19 -10 -25 -10 -5 0 -3 5 5 10 8 5
20 10 25 10 6 0 3 -5 -5 -10z m-65 -18 c-3 -3 -11 0 -18 7 -9 10 -8 11 6 5 10
-3 15 -9 12 -12z m-1370 0 c-3 -3 0 -10 5 -17 7 -8 5 -12 -5 -12 -8 0 -13 3
-10 5 3 3 0 10 -5 17 -7 8 -5 12 5 12 8 0 13 -3 10 -5z m40 -1 c3 -5 0 -13 -6
-17 -7 -4 -9 -3 -5 4 3 5 0 13 -6 15 -9 4 -10 6 -1 6 6 1 14 -3 18 -8z m1375
-17 c0 -8 -19 -13 -24 -6 -3 5 1 9 9 9 8 0 15 -2 15 -3z m-1060 -683 c0 -6 -4
-13 -10 -16 -5 -3 -10 1 -10 9 0 9 5 16 10 16 6 0 10 -4 10 -9z"/>
<path d="M1860 2710 c-11 -11 -21 -27 -21 -35 -4 -42 -2 -50 9 -47 9 2 10 -3
3 -16 -5 -10 -6 -24 -1 -32 5 -8 6 -18 3 -24 -3 -5 -1 -6 5 -2 5 3 13 1 15 -4
3 -6 4 -5 3 2 -2 7 6 18 18 25 12 7 15 12 8 13 -7 0 -10 5 -7 10 4 6 11 7 17
4 7 -5 8 -2 3 6 -6 10 -4 12 9 7 9 -4 14 -3 11 2 -3 5 0 13 6 16 5 4 8 13 5
21 -3 8 0 14 6 14 16 0 -17 45 -33 45 -8 0 -19 4 -26 8 -7 5 -21 -1 -33 -13z
m73 -28 c3 7 4 1 3 -15 -2 -15 -6 -30 -11 -35 -4 -4 -5 -1 -1 6 4 6 3 12 -2
12 -5 0 -14 -11 -20 -25 -6 -14 -17 -25 -24 -25 -10 0 -10 -2 0 -9 11 -7 11
-9 -1 -14 -10 -4 -14 0 -12 11 2 9 4 21 4 25 1 5 6 5 11 2 6 -3 10 0 10 8 0 8
7 20 15 27 12 10 13 16 3 29 -11 14 -11 14 4 3 13 -10 17 -10 21 0z m-52 -39
c-12 -20 -14 -14 -5 12 4 9 9 14 11 11 3 -2 0 -13 -6 -23z"/>
<path d="M1307 2672 c-10 -10 -17 -26 -17 -34 0 -21 27 -85 40 -93 6 -4 7 -11
4 -17 -4 -6 2 -6 15 1 25 14 28 23 4 14 -16 -6 -15 -3 2 17 11 13 15 20 9 17
-7 -4 -14 -1 -17 7 -4 10 0 12 14 9 10 -3 19 -1 20 3 0 5 2 22 4 39 2 16 -1
35 -7 42 -15 19 -52 16 -71 -5z m62 -46 c9 -11 9 -16 -1 -22 -7 -4 -10 -4 -6
1 4 4 3 14 -3 22 -6 7 -9 13 -6 13 2 0 10 -6 16 -14z m-19 -62 c0 -8 -19 -13
-24 -6 -3 5 1 9 9 9 8 0 15 -2 15 -3z"/>
<path d="M1495 2620 c-3 -5 -1 -10 4 -10 6 0 11 5 11 10 0 6 -2 10 -4 10 -3 0
-8 -4 -11 -10z"/>
<path d="M1535 2600 c3 -5 8 -10 11 -10 2 0 4 5 4 10 0 6 -5 10 -11 10 -5 0
-7 -4 -4 -10z"/>
<path d="M1478 2593 c7 -3 16 -2 19 1 4 3 -2 6 -13 5 -11 0 -14 -3 -6 -6z"/>
<path d="M1502 2582 c-8 -6 -2 -9 18 -9 20 0 26 3 18 9 -7 4 -15 8 -18 8 -3 0
-11 -4 -18 -8z"/>
<path d="M1895 2560 c-3 -6 1 -7 9 -4 18 7 21 14 7 14 -6 0 -13 -4 -16 -10z"/>
<path d="M1510 2556 c0 -2 7 -9 15 -16 13 -11 14 -10 9 4 -5 14 -24 23 -24 12z"/>
<path d="M1560 2551 c0 -5 -3 -16 -6 -25 -3 -9 -2 -16 3 -16 5 0 10 11 11 25
1 14 0 25 -3 25 -3 0 -5 -4 -5 -9z"/>
<path d="M1436 2527 c3 -10 9 -15 12 -12 3 3 0 11 -7 18 -10 9 -11 8 -5 -6z"/>
<path d="M673 2453 c-13 -8 -23 -23 -23 -33 0 -18 77 -76 87 -66 4 3 13 0 22
-6 13 -10 14 -10 4 2 -19 21 -16 35 4 19 15 -13 15 -12 3 8 -8 11 -21 19 -29
17 -9 -3 -6 1 7 7 23 13 30 29 11 29 -5 0 -7 5 -3 12 5 7 2 9 -9 5 -11 -4 -14
-2 -10 9 7 19 -35 18 -64 -3z m77 -33 c0 -5 -4 -10 -10 -10 -5 0 -10 5 -10 10
0 6 5 10 10 10 6 0 10 -4 10 -10z"/>
<path d="M2356 2419 c2 -4 -2 -9 -10 -12 -9 -4 -12 -14 -9 -28 5 -17 3 -20 -7
-14 -9 5 -11 4 -6 -4 10 -16 28 -3 24 17 -2 10 7 25 21 34 24 16 24 17 4 15
-12 0 -20 -4 -17 -8z"/>
<path d="M2375 2401 c-3 -5 0 -13 6 -17 8 -5 9 -3 4 6 -6 10 -3 12 13 8 12 -4
24 -3 26 1 3 4 -6 8 -19 9 -13 1 -27 -2 -30 -7z"/>
<path d="M1621 2384 c0 -11 3 -14 6 -6 3 7 2 16 -1 19 -3 4 -6 -2 -5 -13z"/>
<path d="M2299 2388 c-7 -23 -4 -39 7 -49 10 -8 14 -8 14 0 0 6 -4 11 -9 11
-6 0 -8 9 -6 20 2 11 2 20 -1 20 -2 0 -4 -1 -5 -2z"/>
<path d="M2397 2373 c-12 -11 -8 -23 7 -23 8 0 18 4 21 10 4 6 -1 7 -11 3 -12
-4 -15 -3 -10 5 8 13 3 16 -7 5z"/>
<path d="M1640 2355 c-11 -13 -10 -14 4 -9 9 3 16 10 16 15 0 13 -6 11 -20 -6z"/>
<path d="M2370 2345 c0 -8 4 -15 10 -15 5 0 7 7 4 15 -4 8 -8 15 -10 15 -2 0
-4 -7 -4 -15z"/>
<path d="M2275 2320 c3 -5 8 -10 11 -10 2 0 4 5 4 10 0 6 -5 10 -11 10 -5 0
-7 -4 -4 -10z"/>
<path d="M2350 2320 c0 -6 7 -10 15 -10 8 0 15 2 15 4 0 2 -7 6 -15 10 -8 3
-15 1 -15 -4z"/>
<path d="M2395 2320 c-3 -6 1 -7 9 -4 18 7 21 14 7 14 -6 0 -13 -4 -16 -10z"/>
<path d="M1181 2303 c-1 -15 -6 -21 -16 -17 -8 3 -19 3 -24 0 -12 -8 -3 -36
11 -36 6 0 4 8 -3 17 -13 15 -12 16 9 11 24 -7 38 10 29 34 -3 7 -6 3 -6 -9z"/>
<path d="M2296 2303 c-6 -14 -5 -15 5 -6 7 7 10 15 7 18 -3 3 -9 -2 -12 -12z"/>
<path d="M1650 2295 c0 -8 2 -15 4 -15 2 0 6 7 10 15 3 8 1 15 -4 15 -6 0 -10
-7 -10 -15z"/>
<path d="M2329 2293 c8 -16 17 -20 33 -15 21 5 22 4 9 -12 -8 -9 -12 -18 -10
-21 3 -2 10 5 17 16 10 16 10 20 -3 25 -9 4 -19 4 -22 0 -3 -3 -12 2 -20 12
-13 15 -13 15 -4 -5z"/>
<path d="M1770 2291 c0 -6 4 -13 10 -16 6 -3 7 1 4 9 -7 18 -14 21 -14 7z"/>
<path d="M1194 2265 c-3 -14 -11 -22 -17 -18 -5 3 -7 1 -4 -5 4 -5 15 -9 25
-8 9 2 20 -2 24 -8 12 -17 9 -28 -4 -20 -7 5 -8 3 -3 -5 5 -8 11 -9 17 -3 13
13 -9 55 -24 46 -7 -5 -9 1 -4 20 3 14 4 26 1 26 -2 0 -7 -11 -11 -25z"/>
<path d="M1670 2280 c0 -5 5 -10 11 -10 5 0 7 5 4 10 -3 6 -8 10 -11 10 -2 0
-4 -4 -4 -10z"/>
<path d="M1807 2283 c-10 -9 -9 -33 1 -33 4 0 8 9 8 20 0 23 0 22 -9 13z"/>
<path d="M1895 2280 c3 -5 8 -10 11 -10 2 0 4 5 4 10 0 6 -5 10 -11 10 -5 0
-7 -4 -4 -10z"/>
<path d="M2310 2281 c0 -6 4 -13 10 -16 6 -3 7 1 4 9 -7 18 -14 21 -14 7z"/>
<path d="M1232 2273 c-6 -2 -10 -9 -6 -14 8 -14 21 -11 21 6 0 8 -1 15 -1 14
-1 0 -7 -3 -14 -6z"/>
<path d="M1270 2269 c0 -5 5 -7 10 -4 6 3 10 8 10 11 0 2 -4 4 -10 4 -5 0 -10
-5 -10 -11z"/>
<path d="M1296 2265 c-3 -8 -1 -15 4 -15 6 0 10 7 10 15 0 8 -2 15 -4 15 -2 0
-6 -7 -10 -15z"/>
<path d="M1315 2240 c-3 -5 -1 -10 4 -10 6 0 11 5 11 10 0 6 -2 10 -4 10 -3 0
-8 -4 -11 -10z"/>
<path d="M1830 2240 c0 -5 5 -10 10 -10 6 0 10 5 10 10 0 6 -4 10 -10 10 -5 0
-10 -4 -10 -10z"/>
<path d="M1270 2230 c-8 -5 -10 -10 -5 -10 6 0 17 5 25 10 8 5 11 10 5 10 -5
0 -17 -5 -25 -10z"/>
<path d="M2181 2213 c-10 -24 -9 -26 2 -11 8 10 17 15 21 11 4 -4 4 0 0 10 -8
22 -9 22 -23 -10z"/>
<path d="M2230 2230 c0 -5 5 -10 11 -10 5 0 7 5 4 10 -3 6 -8 10 -11 10 -2 0
-4 -4 -4 -10z"/>
<path d="M1150 2220 c-13 -8 -12 -10 3 -10 9 0 17 5 17 10 0 12 -1 12 -20 0z"/>
<path d="M1960 2215 c-7 -9 -11 -17 -9 -20 3 -2 10 5 17 15 14 24 10 26 -8 5z"/>
<path d="M1175 2201 c-3 -5 0 -13 6 -17 7 -4 9 -3 5 4 -3 5 0 13 6 15 9 4 10
6 1 6 -6 1 -14 -3 -18 -8z"/>
<path d="M2346 2198 c3 -5 10 -6 15 -3 13 9 11 12 -6 12 -8 0 -12 -4 -9 -9z"/>
<path d="M2377 2195 c-4 -8 -3 -16 1 -19 4 -3 9 4 9 15 2 23 -3 25 -10 4z"/>
<path d="M2197 2194 c-3 -3 -3 -13 0 -22 4 -9 2 -13 -4 -9 -10 6 -43 -33 -43
-50 0 -4 8 4 18 18 9 15 25 25 34 23 10 -1 21 3 25 8 3 7 1 8 -5 4 -11 -6 -16
6 -13 27 1 9 -4 9 -12 1z"/>
<path d="M2153 2169 c-2 -23 3 -25 10 -4 4 8 3 16 -1 19 -4 3 -9 -4 -9 -15z"/>
<path d="M2256 2175 c4 -8 8 -15 10 -15 2 0 4 7 4 15 0 8 -4 15 -10 15 -5 0
-7 -7 -4 -15z"/>
<path d="M2011 2173 c-1 -17 16 -25 25 -12 4 7 3 9 -4 5 -5 -3 -13 0 -15 6 -4
9 -6 10 -6 1z"/>
<path d="M2356 2167 c3 -10 9 -15 12 -12 3 3 0 11 -7 18 -10 9 -11 8 -5 -6z"/>
<path d="M908 2163 c6 -2 18 -2 25 0 6 3 1 5 -13 5 -14 0 -19 -2 -12 -5z"/>
<path d="M2236 2153 c-6 -14 -5 -15 5 -6 7 7 10 15 7 18 -3 3 -9 -2 -12 -12z"/>
<path d="M627 2147 c-3 -8 1 -14 8 -14 7 0 11 6 8 14 -3 7 -6 13 -8 13 -2 0
-5 -6 -8 -13z"/>
<path d="M660 2130 c-6 -11 -8 -20 -6 -20 3 0 10 9 16 20 6 11 8 20 6 20 -3 0
-10 -9 -16 -20z"/>
<path d="M890 2146 c0 -2 7 -7 16 -10 8 -3 12 -2 9 4 -6 10 -25 14 -25 6z"/>
<path d="M930 2139 c0 -5 5 -7 10 -4 6 3 10 8 10 11 0 2 -4 4 -10 4 -5 0 -10
-5 -10 -11z"/>
<path d="M2029 2140 c-6 -4 1 -7 15 -7 14 0 26 3 26 7 0 3 -7 7 -15 7 -8 0
-19 -4 -26 -7z"/>
<path d="M2125 2140 c3 -5 8 -10 11 -10 2 0 4 5 4 10 0 6 -5 10 -11 10 -5 0
-7 -4 -4 -10z"/>
<path d="M2255 2140 c-3 -5 -1 -10 4 -10 6 0 11 5 11 10 0 6 -2 10 -4 10 -3 0
-8 -4 -11 -10z"/>
<path d="M593 2115 c0 -8 4 -12 9 -9 4 3 8 9 8 15 0 5 -4 9 -8 9 -5 0 -9 -7
-9 -15z"/>
<path d="M950 2120 c0 -5 5 -10 10 -10 6 0 10 5 10 10 0 6 -4 10 -10 10 -5 0
-10 -4 -10 -10z"/>
<path d="M2175 2119 c-4 -6 -4 -13 -1 -16 3 -4 6 -1 6 6 0 7 5 9 12 5 7 -4 8
-3 4 4 -9 15 -13 15 -21 1z"/>
<path d="M2230 2120 c8 -5 20 -10 25 -10 6 0 3 5 -5 10 -8 5 -19 10 -25 10 -5
0 -3 -5 5 -10z"/>
<path d="M2395 2120 c3 -5 8 -10 11 -10 2 0 4 5 4 10 0 6 -5 10 -11 10 -5 0
-7 -4 -4 -10z"/>
<path d="M691 2112 c-1 -8 -6 -10 -13 -6 -10 5 -10 4 -1 -6 15 -16 28 -8 20
12 -4 11 -6 11 -6 0z"/>
<path d="M930 2105 c0 -8 4 -15 10 -15 5 0 7 7 4 15 -4 8 -8 15 -10 15 -2 0
-4 -7 -4 -15z"/>
<path d="M977 2101 c-3 -11 -2 -22 1 -25 9 -10 32 -7 32 4 0 5 -6 7 -14 4 -11
-4 -13 0 -9 15 3 12 3 21 0 21 -2 0 -7 -9 -10 -19z"/>
<path d="M2070 2106 c0 -8 4 -17 8 -20 4 -2 8 4 8 15 0 10 -4 19 -8 19 -4 0
-8 -6 -8 -14z"/>
<path d="M2271 2107 c-8 -10 -7 -14 4 -14 8 0 12 4 9 8 -2 4 2 10 8 12 8 4 9
6 2 6 -6 1 -17 -5 -23 -12z"/>
<path d="M637 2091 c14 -17 33 -20 33 -5 0 3 -4 3 -9 0 -5 -3 -11 1 -15 9 -3
8 -10 15 -16 15 -5 0 -2 -9 7 -19z"/>
<path d="M1031 2093 c7 -12 15 -20 18 -17 3 2 -3 12 -13 22 -17 16 -18 16 -5
-5z"/>
<path d="M2110 2100 c-8 -5 -10 -10 -5 -10 6 0 17 5 25 10 8 5 11 10 5 10 -5
0 -17 -5 -25 -10z"/>
<path d="M2210 2099 c0 -5 5 -7 10 -4 6 3 10 8 10 11 0 2 -4 4 -10 4 -5 0 -10
-5 -10 -11z"/>
<path d="M2370 2098 c0 -6 3 -8 7 -5 3 4 13 1 22 -6 14 -11 14 -10 2 6 -15 20
-31 22 -31 5z"/>
<path d="M2235 2089 c-4 -6 -5 -12 -2 -15 2 -3 7 2 10 11 7 17 1 20 -8 4z"/>
<path d="M915 2081 c6 -11 4 -13 -8 -8 -23 9 -21 0 2 -13 15 -7 19 -7 17 5 -1
8 -6 18 -11 22 -4 5 -5 2 0 -6z"/>
<path d="M2056 2077 c3 -10 9 -15 12 -12 3 3 0 11 -7 18 -10 9 -11 8 -5 -6z"/>
<path d="M2137 2077 c3 -5 14 -6 25 -4 16 5 19 2 15 -14 -3 -11 1 -23 11 -29
15 -8 15 -11 2 -20 -9 -6 -10 -10 -3 -10 19 0 27 22 12 34 -8 6 -14 20 -14 30
0 14 -7 20 -27 20 -14 1 -24 -2 -21 -7z"/>
<path d="M952 2066 c7 -8 15 -12 17 -11 5 6 -10 25 -20 25 -5 0 -4 -6 3 -14z"/>
<path d="M1021 2064 c0 -11 3 -14 6 -6 3 7 2 16 -1 19 -3 4 -6 -2 -5 -13z"/>
<path d="M2210 2065 c0 -8 4 -15 10 -15 5 0 7 7 4 15 -4 8 -8 15 -10 15 -2 0
-4 -7 -4 -15z"/>
<path d="M2360 2075 c0 -5 5 -17 10 -25 5 -8 10 -10 10 -5 0 6 -5 17 -10 25
-5 8 -10 11 -10 5z"/>
<path d="M670 2060 c0 -6 7 -10 15 -10 8 0 15 2 15 4 0 2 -7 6 -15 10 -8 3
-15 1 -15 -4z"/>
<path d="M1055 2059 c-11 -16 -1 -19 13 -3 7 8 8 14 3 14 -5 0 -13 -5 -16 -11z"/>
<path d="M2111 2060 c-9 -5 -4 -7 13 -7 29 0 32 2 13 10 -8 3 -20 2 -26 -3z"/>
<path d="M710 2044 c0 -13 18 -39 24 -34 2 3 -2 14 -10 24 -8 11 -14 16 -14
10z"/>
<path d="M876 2033 c-6 -14 -5 -15 5 -6 7 7 10 15 7 18 -3 3 -9 -2 -12 -12z"/>
<path d="M934 2039 c-4 -7 -3 -9 4 -5 5 3 13 0 15 -6 4 -9 6 -10 6 -1 1 17
-16 25 -25 12z"/>
<path d="M980 2046 c0 -2 7 -6 15 -10 8 -3 15 -1 15 4 0 6 -7 10 -15 10 -8 0
-15 -2 -15 -4z"/>
<path d="M2150 2031 c0 -5 5 -13 10 -16 6 -3 10 -2 10 4 0 5 -4 13 -10 16 -5
3 -10 2 -10 -4z"/>
<path d="M2228 2033 c7 -3 16 -2 19 1 4 3 -2 6 -13 5 -11 0 -14 -3 -6 -6z"/>
<path d="M901 2013 c0 -11 3 -13 6 -5 2 6 10 9 15 6 7 -4 8 -2 4 4 -11 18 -26
14 -25 -5z"/>
<path d="M977 2013 c5 -12 3 -14 -7 -8 -9 5 -11 4 -6 -4 4 -6 12 -9 17 -6 12
8 12 35 -1 35 -5 0 -6 -7 -3 -17z"/>
<path d="M870 2000 c0 -5 5 -10 10 -10 6 0 10 5 10 10 0 6 -4 10 -10 10 -5 0
-10 -4 -10 -10z"/>
<path d="M934 1995 c-3 -8 -3 -18 0 -23 3 -6 -1 -12 -9 -16 -8 -3 -15 -10 -15
-16 0 -22 34 23 35 46 1 27 -3 31 -11 9z"/>
<path d="M2335 2000 c3 -5 8 -10 11 -10 2 0 4 5 4 10 0 6 -5 10 -11 10 -5 0
-7 -4 -4 -10z"/>
<path d="M850 1980 c0 -5 5 -10 11 -10 5 0 7 5 4 10 -3 6 -8 10 -11 10 -2 0
-4 -4 -4 -10z"/>
<path d="M895 1980 c-3 -5 -3 -10 2 -11 4 -1 -3 -5 -17 -10 l-25 -8 24 2 c14
1 25 9 27 20 3 19 -2 22 -11 7z"/>
<path d="M2310 1980 c0 -6 4 -9 9 -6 5 4 12 1 14 -4 3 -6 4 -5 3 2 -3 15 -26
23 -26 8z"/>
<path d="M2284 1959 c-4 -8 -3 -9 4 -5 7 4 12 3 12 -3 0 -5 -6 -12 -12 -14
-10 -4 -10 -6 0 -6 8 -1 10 -6 6 -13 -4 -7 -3 -10 1 -5 13 11 16 45 6 52 -5 3
-13 0 -17 -6z"/>
<path d="M2326 1937 c3 -10 9 -15 12 -12 3 3 0 11 -7 18 -10 9 -11 8 -5 -6z"/>
<path d="M2250 1920 c-9 -6 -10 -10 -3 -10 6 0 15 5 18 10 8 12 4 12 -15 0z"/>
<path d="M2261 1900 c-9 -5 -4 -7 13 -7 29 0 32 2 13 10 -8 3 -20 2 -26 -3z"/>
<path d="M2313 1888 c-2 -18 0 -20 7 -8 12 18 13 30 2 30 -4 0 -9 -10 -9 -22z"/>
<path d="M2330 1870 c-6 -11 -7 -20 -2 -20 6 0 12 9 15 20 3 11 3 20 1 20 -2
0 -8 -9 -14 -20z"/>
<path d="M2273 1854 c0 -17 2 -22 7 -13 5 6 6 18 3 26 -8 19 -10 16 -10 -13z"/>
<path d="M837 1859 c7 -7 15 -10 18 -7 3 3 -2 9 -12 12 -14 6 -15 5 -6 -5z"/>
<path d="M2353 1855 c0 -8 4 -12 9 -9 5 3 6 10 3 15 -9 13 -12 11 -12 -6z"/>
<path d="M775 1851 c-7 -12 12 -24 25 -16 6 3 10 12 9 18 0 9 -2 9 -6 0 -2 -7
-9 -13 -14 -13 -6 0 -7 5 -4 10 3 6 4 10 1 10 -3 0 -7 -4 -11 -9z"/>
<path d="M2296 1842 c-3 -5 4 -16 15 -25 10 -9 19 -12 19 -7 0 6 -7 13 -15 16
-8 4 -12 10 -9 15 3 5 3 9 0 9 -3 0 -7 -4 -10 -8z"/>
<path d="M810 1820 c0 -5 5 -10 10 -10 6 0 10 5 10 10 0 6 -4 10 -10 10 -5 0
-10 -4 -10 -10z"/>
<path d="M845 1820 c-3 -5 -1 -10 4 -10 6 0 11 5 11 10 0 6 -2 10 -4 10 -3 0
-8 -4 -11 -10z"/>
<path d="M873 1784 c0 -17 2 -22 7 -13 5 6 6 18 3 26 -8 19 -10 16 -10 -13z"/>
<path d="M2284 1794 c-18 -14 -18 -15 4 -4 12 6 22 13 22 15 0 8 -5 6 -26 -11z"/>
<path d="M837 1779 c6 -23 9 -24 16 -5 3 8 0 17 -7 19 -10 4 -12 -1 -9 -14z"/>
<path d="M2316 1779 c2 -4 -2 -10 -8 -12 -8 -4 -9 -6 -2 -6 6 -1 17 5 23 12 8
10 7 14 -4 14 -8 0 -12 -4 -9 -8z"/>
<path d="M790 1760 c0 -5 5 -10 10 -10 6 0 10 5 10 10 0 6 -4 10 -10 10 -5 0
-10 -4 -10 -10z"/>
<path d="M820 1745 c0 -8 29 -12 39 -5 9 5 4 8 -13 8 -14 0 -26 -2 -26 -3z"/>
<path d="M2290 1735 c0 -8 2 -15 4 -15 2 0 6 7 10 15 3 8 1 15 -4 15 -6 0 -10
-7 -10 -15z"/>
<path d="M2690 1740 c0 -5 5 -10 11 -10 5 0 7 5 4 10 -3 6 -8 10 -11 10 -2 0
-4 -4 -4 -10z"/>
<path d="M797 1733 c-10 -9 -9 -23 1 -23 5 0 9 7 9 15 0 17 -1 18 -10 8z"/>
<path d="M2310 1718 c0 -6 7 -7 16 -4 12 4 14 1 9 -13 -3 -11 -1 -22 4 -26 7
-4 8 1 4 11 -4 11 -3 15 5 10 6 -3 14 -1 18 5 4 7 3 9 -4 5 -5 -3 -12 -1 -14
6 -5 14 -38 20 -38 6z"/>
<path d="M2648 1723 c-9 -2 -16 -13 -15 -23 1 -11 4 -17 7 -14 3 3 4 8 2 11
-2 3 5 11 15 19 19 14 18 14 -9 7z"/>
<path d="M2750 1720 c0 -5 5 -10 10 -10 6 0 10 5 10 10 0 6 -4 10 -10 10 -5 0
-10 -4 -10 -10z"/>
<path d="M2710 1710 c8 -5 20 -10 25 -10 6 0 3 5 -5 10 -8 5 -19 10 -25 10 -5
0 -3 -5 5 -10z"/>
<path d="M774 1690 c0 -13 4 -16 10 -10 7 7 7 13 0 20 -6 6 -10 3 -10 -10z"/>
<path d="M820 1706 c0 -2 7 -7 16 -10 8 -3 12 -2 9 4 -6 10 -25 14 -25 6z"/>
<path d="M2267 1691 c-4 -17 -3 -21 5 -13 5 5 8 16 6 23 -3 8 -7 3 -11 -10z"/>
<path d="M2601 1694 c0 -11 3 -14 6 -6 3 7 2 16 -1 19 -3 4 -6 -2 -5 -13z"/>
<path d="M2785 1700 c3 -5 8 -10 11 -10 2 0 4 5 4 10 0 6 -5 10 -11 10 -5 0
-7 -4 -4 -10z"/>
<path d="M2557 1693 c-10 -9 -9 -23 1 -23 5 0 9 7 9 15 0 17 -1 18 -10 8z"/>
<path d="M813 1673 c-3 -7 -9 -11 -14 -8 -4 3 -13 -5 -19 -17 -10 -21 -10 -21
3 -6 8 10 17 15 20 11 4 -3 9 1 12 9 4 9 14 14 25 11 10 -3 20 -1 23 4 3 4 -6
8 -20 8 -14 0 -28 -6 -30 -12z"/>
<path d="M2300 1672 c9 -19 30 -23 30 -5 0 4 -3 3 -7 0 -3 -4 -12 1 -20 11
-13 15 -13 15 -3 -6z"/>
<path d="M2370 1685 c0 -1 11 -10 25 -19 19 -13 23 -13 19 -2 -4 12 -44 31
-44 21z"/>
<path d="M2668 1683 c7 -3 16 -2 19 1 4 3 -2 6 -13 5 -11 0 -14 -3 -6 -6z"/>
<path d="M2780 1673 c13 -28 27 -37 27 -18 0 8 -3 13 -5 10 -3 -3 -11 3 -19
13 -13 15 -13 15 -3 -5z"/>
<path d="M875 1661 c3 -5 0 -11 -7 -13 -7 -3 -5 -7 6 -11 9 -4 15 -3 11 2 -3
5 0 11 7 13 7 3 5 7 -6 11 -9 4 -15 3 -11 -2z"/>
<path d="M2344 1656 c-13 -10 -14 -15 -4 -21 9 -5 11 -4 6 3 -7 12 5 16 32 13
16 -2 15 6 -2 12 -8 3 -22 0 -32 -7z"/>
<path d="M2457 1659 c7 -7 15 -10 18 -7 3 3 -2 9 -12 12 -14 6 -15 5 -6 -5z"/>
<path d="M2490 1660 c0 -5 5 -10 10 -10 6 0 10 5 10 10 0 6 -4 10 -10 10 -5 0
-10 -4 -10 -10z"/>
<path d="M2580 1665 c0 -8 29 -12 39 -5 9 5 4 8 -13 8 -14 0 -26 -2 -26 -3z"/>
<path d="M2656 1656 c4 -11 0 -13 -14 -9 -11 2 -22 1 -25 -4 -3 -5 7 -8 21 -7
25 1 47 34 23 34 -6 0 -8 -6 -5 -14z"/>
<path d="M2690 1655 c0 -8 2 -15 4 -15 2 0 6 7 10 15 3 8 1 15 -4 15 -6 0 -10
-7 -10 -15z"/>
<path d="M2746 1658 c3 -5 10 -6 15 -3 13 9 11 12 -6 12 -8 0 -12 -4 -9 -9z"/>
<path d="M2555 1649 c-4 -6 -5 -12 -2 -15 2 -3 7 2 10 11 7 17 1 20 -8 4z"/>
<path d="M830 1639 c0 -5 5 -7 10 -4 6 3 10 8 10 11 0 2 -4 4 -10 4 -5 0 -10
-5 -10 -11z"/>
<path d="M2285 1639 c-5 -8 -4 -10 3 -5 8 5 12 -1 13 -16 1 -18 2 -19 6 -4 6
23 -12 43 -22 25z"/>
<path d="M2430 1640 c0 -5 5 -10 10 -10 6 0 10 5 10 10 0 6 -4 10 -10 10 -5 0
-10 -4 -10 -10z"/>
<path d="M2576 1642 c-3 -5 4 -16 15 -25 10 -9 19 -12 19 -7 0 6 -7 13 -15 16
-8 4 -12 10 -9 15 3 5 3 9 0 9 -3 0 -7 -4 -10 -8z"/>
<path d="M2710 1640 c0 -5 7 -7 15 -4 11 5 14 1 9 -12 -5 -15 -4 -16 4 -4 6 8
8 18 6 22 -7 11 -34 10 -34 -2z"/>
<path d="M2765 1639 c-6 -8 -4 -10 5 -4 10 6 12 4 6 -11 -6 -15 -5 -17 5 -6 9
9 10 15 2 23 -8 8 -13 7 -18 -2z"/>
<path d="M896 1625 c-3 -8 -1 -15 4 -15 6 0 10 7 10 15 0 8 -2 15 -4 15 -2 0
-6 -7 -10 -15z"/>
<path d="M2360 1631 c0 -10 19 -25 25 -20 1 2 -3 10 -11 17 -8 7 -14 8 -14 3z"/>
<path d="M2472 1624 c-7 -8 -8 -14 -3 -14 10 0 25 19 20 25 -2 1 -10 -3 -17
-11z"/>
<path d="M2510 1638 c0 -2 9 -11 20 -21 11 -9 20 -13 20 -7 0 5 -9 14 -20 20
-11 6 -20 9 -20 8z"/>
<path d="M650 1620 c0 -5 5 -10 11 -10 5 0 7 5 4 10 -3 6 -8 10 -11 10 -2 0
-4 -4 -4 -10z"/>
<path d="M791 1617 c-1 -11 -6 -15 -13 -11 -7 5 -8 3 -3 -5 10 -16 29 2 22 21
-4 8 -6 7 -6 -5z"/>
<path d="M850 1615 c0 -8 2 -15 4 -15 2 0 6 7 10 15 3 8 1 15 -4 15 -6 0 -10
-7 -10 -15z"/>
<path d="M2326 1617 c3 -10 9 -15 12 -12 3 3 0 11 -7 18 -10 9 -11 8 -5 -6z"/>
<path d="M2410 1623 c5 -2 10 -9 10 -14 0 -6 -4 -8 -8 -5 -4 2 -14 0 -22 -5
-11 -7 -8 -8 10 -6 26 4 35 28 12 33 -7 1 -8 0 -2 -3z"/>
<path d="M2628 1612 c-3 -11 0 -19 7 -19 7 0 10 8 7 19 -2 10 -6 18 -7 18 -1
0 -5 -8 -7 -18z"/>
<path d="M2682 1616 c7 -8 15 -12 17 -11 5 6 -10 25 -20 25 -5 0 -4 -6 3 -14z"/>
<path d="M700 1611 c0 -7 -5 -9 -12 -5 -7 5 -8 3 -3 -5 5 -9 10 -10 18 -2 6 6
8 14 4 18 -4 3 -7 1 -7 -6z"/>
<path d="M815 1585 c1 -23 35 -67 35 -45 0 6 -6 13 -14 16 -8 3 -12 13 -9 24
3 10 1 20 -4 23 -5 3 -8 -5 -8 -18z"/>
<path d="M870 1600 c0 -6 7 -10 15 -10 8 0 15 2 15 4 0 2 -7 6 -15 10 -8 3
-15 1 -15 -4z"/>
<path d="M2270 1600 c-13 -8 -12 -10 3 -10 9 0 17 5 17 10 0 12 -1 12 -20 0z"/>
<path d="M2350 1600 c0 -5 5 -10 11 -10 5 0 7 5 4 10 -3 6 -8 10 -11 10 -2 0
-4 -4 -4 -10z"/>
<path d="M730 1589 c0 -5 -5 -7 -10 -4 -6 3 -13 0 -16 -8 -3 -8 -13 -13 -24
-10 -10 3 -20 1 -23 -4 -3 -5 6 -8 20 -7 13 0 28 6 32 13 5 7 12 12 17 11 5
-1 10 3 12 9 2 6 1 11 -2 11 -3 0 -6 -5 -6 -11z"/>
<path d="M850 1580 c0 -5 5 -10 11 -10 5 0 7 5 4 10 -3 6 -8 10 -11 10 -2 0
-4 -4 -4 -10z"/>
<path d="M2301 1574 c0 -11 3 -14 6 -6 3 7 2 16 -1 19 -3 4 -6 -2 -5 -13z"/>
<path d="M2326 1577 c3 -10 9 -15 12 -12 3 3 0 11 -7 18 -10 9 -11 8 -5 -6z"/>
<path d="M750 1559 c0 -5 5 -7 10 -4 6 3 10 8 10 11 0 2 -4 4 -10 4 -5 0 -10
-5 -10 -11z"/>
<path d="M2259 1568 c-5 -18 -2 -55 4 -51 5 3 6 14 4 25 -4 14 -2 18 9 14 8
-3 14 -1 14 4 0 8 -28 15 -31 8z"/>
<path d="M701 1536 c-9 -11 -9 -16 0 -22 7 -4 9 -3 5 4 -3 5 0 12 6 15 7 2 10
7 7 11 -3 4 -12 0 -18 -8z"/>
<path d="M770 1535 c0 -8 2 -15 4 -15 2 0 6 7 10 15 3 8 1 15 -4 15 -6 0 -10
-7 -10 -15z"/>
<path d="M796 1535 c-9 -26 -7 -32 5 -12 6 10 9 21 6 23 -2 3 -7 -2 -11 -11z"/>
<path d="M2301 1536 c-9 -11 -9 -16 1 -22 7 -4 10 -4 6 1 -4 4 0 14 10 21 9 7
12 14 6 14 -6 0 -17 -6 -23 -14z"/>
<path d="M648 1533 c6 -2 9 -10 6 -15 -4 -7 -2 -8 5 -4 13 9 5 26 -12 25 -9 0
-8 -2 1 -6z"/>
<path d="M864 1525 c-18 -14 -18 -14 4 -8 12 3 22 9 22 14 0 12 -3 11 -26 -6z"/>
<path d="M736 1503 c0 -14 9 -29 20 -35 16 -8 17 -8 4 4 -9 7 -14 20 -12 30 2
9 -1 18 -5 21 -5 3 -8 -6 -7 -20z"/>
<path d="M831 1504 c0 -11 3 -14 6 -6 3 7 2 16 -1 19 -3 4 -6 -2 -5 -13z"/>
<path d="M670 1495 c0 -8 2 -15 4 -15 2 0 6 7 10 15 3 8 1 15 -4 15 -6 0 -10
-7 -10 -15z"/>
<path d="M715 1499 c-4 -6 -5 -12 -2 -15 2 -3 7 2 10 11 7 17 1 20 -8 4z"/>
<path d="M2270 1499 c0 -5 5 -7 10 -4 6 3 10 8 10 11 0 2 -4 4 -10 4 -5 0 -10
-5 -10 -11z"/>
<path d="M850 1490 c0 -5 5 -10 10 -10 7 0 7 -7 0 -22 -11 -23 -11 -23 6 -3
16 19 16 19 10 1 -4 -11 -1 -23 6 -28 10 -7 9 -8 -4 -6 -17 3 -27 -14 -11 -19
34 -11 36 64 2 85 -11 7 -19 8 -19 2z"/>
<path d="M2295 1490 c-3 -6 1 -13 9 -16 9 -3 13 -10 10 -15 -3 -5 0 -9 5 -9
16 0 13 20 -4 26 -8 4 -12 10 -9 15 3 5 3 9 0 9 -3 0 -8 -5 -11 -10z"/>
<path d="M651 1467 c2 -1 13 -9 24 -17 19 -14 19 -14 6 3 -7 9 -18 17 -24 17
-6 0 -8 -1 -6 -3z"/>
<path d="M708 1443 c6 -2 18 -2 25 0 6 3 1 5 -13 5 -14 0 -19 -2 -12 -5z"/>
<path d="M761 1444 c11 -3 15 -12 12 -23 -6 -22 12 -37 23 -20 5 8 3 9 -5 4
-9 -5 -12 0 -9 16 2 17 -2 24 -17 26 -13 1 -14 0 -4 -3z"/>
<path d="M690 1415 c0 -8 2 -15 4 -15 2 0 6 7 10 15 3 8 1 15 -4 15 -6 0 -10
-7 -10 -15z"/>
<path d="M736 1415 c4 -8 8 -15 10 -15 2 0 4 7 4 15 0 8 -4 15 -10 15 -5 0 -7
-7 -4 -15z"/>
<path d="M2556 1407 c3 -10 9 -15 12 -12 3 3 0 11 -7 18 -10 9 -11 8 -5 -6z"/>
<path d="M2655 1411 c-9 -15 15 -25 28 -12 9 9 7 10 -7 5 -13 -5 -17 -4 -12 4
4 7 5 12 2 12 -3 0 -7 -4 -11 -9z"/>
<path d="M710 1400 c0 -5 5 -10 10 -10 6 0 10 5 10 10 0 6 -4 10 -10 10 -5 0
-10 -4 -10 -10z"/>
<path d="M2475 1391 c-3 -6 -10 -9 -15 -6 -5 3 -11 1 -15 -4 -3 -6 4 -8 16 -6
25 5 35 13 27 21 -3 3 -9 0 -13 -5z"/>
<path d="M2540 1391 c0 -10 19 -25 25 -20 1 2 -3 10 -11 17 -8 7 -14 8 -14 3z"/>
<path d="M2630 1391 c0 -9 30 -24 36 -18 2 1 -6 8 -16 15 -11 7 -20 8 -20 3z"/>
<path d="M694 1370 c0 -13 4 -16 10 -10 7 7 7 13 0 20 -6 6 -10 3 -10 -10z"/>
<path d="M736 1374 c-3 -8 0 -16 7 -20 7 -4 9 -4 5 1 -4 4 0 13 8 20 15 11 15
12 1 12 -9 0 -18 -6 -21 -13z"/>
<path d="M2321 1386 c2 -2 15 -9 29 -15 24 -11 24 -11 6 3 -16 13 -49 24 -35
12z"/>
<path d="M2496 1375 c-6 -16 19 -33 31 -21 3 3 12 -2 20 -12 13 -15 13 -15 4
5 -8 15 -17 20 -31 16 -16 -4 -19 -2 -14 11 3 9 4 16 1 16 -3 0 -8 -7 -11 -15z"/>
<path d="M2592 1376 c7 -8 15 -12 17 -11 5 6 -10 25 -20 25 -5 0 -4 -6 3 -14z"/>
<path d="M2690 1378 c0 -4 4 -8 9 -8 6 0 12 4 15 8 3 5 -1 9 -9 9 -8 0 -15 -4
-15 -9z"/>
<path d="M450 1360 c0 -5 5 -10 11 -10 5 0 7 5 4 10 -3 6 -8 10 -11 10 -2 0
-4 -4 -4 -10z"/>
<path d="M2310 1361 c0 -6 4 -12 8 -15 5 -3 9 1 9 9 0 8 -4 15 -9 15 -4 0 -8
-4 -8 -9z"/>
<path d="M2573 1355 c-3 -9 -3 -18 -1 -21 3 -3 8 4 11 16 6 23 -1 27 -10 5z"/>
<path d="M2433 1334 c0 -17 2 -22 7 -13 5 6 6 18 3 26 -8 19 -10 16 -10 -13z"/>
<path d="M2470 1351 c0 -5 5 -13 10 -16 6 -3 10 -2 10 4 0 5 -4 13 -10 16 -5
3 -10 2 -10 -4z"/>
<path d="M2635 1350 c-3 -5 -1 -10 4 -10 6 0 11 5 11 10 0 6 -2 10 -4 10 -3 0
-8 -4 -11 -10z"/>
<path d="M2710 1350 c0 -5 5 -10 11 -10 5 0 7 5 4 10 -3 6 -8 10 -11 10 -2 0
-4 -4 -4 -10z"/>
<path d="M556 1335 c-9 -26 -7 -32 5 -12 6 10 9 21 6 23 -2 3 -7 -2 -11 -11z"/>
<path d="M705 1340 c-3 -6 1 -7 9 -4 18 7 21 14 7 14 -6 0 -13 -4 -16 -10z"/>
<path d="M751 1340 c-9 -5 -4 -7 13 -7 29 0 32 2 13 10 -8 3 -20 2 -26 -3z"/>
<path d="M2370 1340 c0 -5 5 -10 10 -10 6 0 10 5 10 10 0 6 -4 10 -10 10 -5 0
-10 -4 -10 -10z"/>
<path d="M395 1330 c-4 -6 1 -7 11 -3 13 5 15 3 9 -7 -5 -9 -4 -11 4 -6 6 4 9
12 6 17 -8 12 -22 12 -30 -1z"/>
<path d="M450 1331 c0 -6 4 -13 10 -16 6 -3 7 1 4 9 -7 18 -14 21 -14 7z"/>
<path d="M625 1327 c-15 -12 -16 -15 -4 -22 8 -5 11 -5 7 0 -4 4 0 14 10 21
23 18 11 18 -13 1z"/>
<path d="M485 1319 c-4 -6 -4 -13 -1 -16 3 -4 6 -1 6 6 0 7 5 9 12 5 7 -4 8
-3 4 4 -9 15 -13 15 -21 1z"/>
<path d="M570 1308 c-10 -21 -10 -21 3 -6 8 10 18 14 22 10 5 -4 5 -1 1 6 -10
17 -14 15 -26 -10z"/>
<path d="M660 1326 c0 -2 7 -6 15 -10 8 -3 15 -1 15 4 0 6 -7 10 -15 10 -8 0
-15 -2 -15 -4z"/>
<path d="M2310 1320 c0 -5 5 -10 10 -10 6 0 10 5 10 10 0 6 -4 10 -10 10 -5 0
-10 -4 -10 -10z"/>
<path d="M2455 1321 c-6 -11 13 -26 22 -17 4 3 1 6 -6 6 -7 0 -9 5 -6 10 3 6
4 10 1 10 -3 0 -7 -4 -11 -9z"/>
<path d="M2499 1328 c-6 -22 -5 -38 3 -38 6 0 7 7 4 16 -4 12 -2 15 9 10 8 -3
15 -1 15 4 0 8 -28 15 -31 8z"/>
<path d="M700 1315 c0 -5 5 -17 10 -25 5 -8 10 -10 10 -5 0 6 -5 17 -10 25 -5
8 -10 11 -10 5z"/>
<path d="M760 1314 c0 -6 7 -19 16 -30 14 -18 14 -18 3 6 -14 31 -19 36 -19
24z"/>
<path d="M793 1305 c0 -8 4 -12 9 -9 5 3 6 10 3 15 -9 13 -12 11 -12 -6z"/>
<path d="M2362 1300 c0 -14 2 -19 5 -12 2 6 2 18 0 25 -3 6 -5 1 -5 -13z"/>
<path d="M2394 1300 c0 -10 6 -16 13 -13 7 3 13 9 13 13 0 4 -6 10 -13 13 -7
3 -13 -3 -13 -13z"/>
<path d="M430 1299 c0 -5 5 -7 10 -4 6 3 10 8 10 11 0 2 -4 4 -10 4 -5 0 -10
-5 -10 -11z"/>
<path d="M525 1300 c3 -5 8 -10 11 -10 2 0 4 5 4 10 0 6 -5 10 -11 10 -5 0 -7
-4 -4 -10z"/>
<path d="M2316 1287 c3 -10 9 -15 12 -12 3 3 0 11 -7 18 -10 9 -11 8 -5 -6z"/>
<path d="M2435 1289 c-4 -6 -5 -12 -2 -15 2 -3 7 2 10 11 7 17 1 20 -8 4z"/>
<path d="M753 1264 c0 -17 2 -22 7 -13 5 6 6 18 3 26 -8 19 -10 16 -10 -13z"/>
<path d="M2279 1273 c-11 -15 -11 -16 1 -6 11 10 16 9 26 -5 7 -9 14 -15 17
-12 2 3 -3 13 -13 23 -16 17 -18 17 -31 0z"/>
<path d="M2470 1280 c0 -6 7 -10 15 -10 8 0 15 2 15 4 0 2 -7 6 -15 10 -8 3
-15 1 -15 -4z"/>
<path d="M2453 1261 c0 -11 5 -18 9 -15 4 3 5 11 1 19 -7 21 -12 19 -10 -4z"/>
<path d="M706 1258 c3 -4 11 -5 19 -1 21 7 19 12 -4 10 -11 0 -18 -5 -15 -9z"/>
<path d="M794 1255 c-4 -8 -11 -12 -17 -8 -5 3 -7 1 -4 -5 4 -5 17 -8 29 -4
12 3 17 7 10 10 -7 2 -10 8 -6 13 3 5 3 9 -1 9 -3 0 -8 -7 -11 -15z"/>
<path d="M2340 1265 c0 -8 29 -12 39 -5 9 5 4 8 -13 8 -14 0 -26 -2 -26 -3z"/>
<path d="M2275 1240 c3 -5 8 -10 11 -10 2 0 4 5 4 10 0 6 -5 10 -11 10 -5 0
-7 -4 -4 -10z"/>
<path d="M2375 1240 c-3 -6 1 -7 9 -4 18 7 21 14 7 14 -6 0 -13 -4 -16 -10z"/>
<path d="M2296 1225 c-9 -26 -7 -32 5 -12 6 10 9 21 6 23 -2 3 -7 -2 -11 -11z"/>
<path d="M725 1220 c-3 -6 1 -7 9 -4 18 7 21 14 7 14 -6 0 -13 -4 -16 -10z"/>
<path d="M752 1214 c-7 -8 -8 -14 -3 -14 10 0 25 19 20 25 -2 1 -10 -3 -17
-11z"/>
<path d="M815 1220 c3 -5 8 -10 11 -10 2 0 4 5 4 10 0 6 -5 10 -11 10 -5 0 -7
-4 -4 -10z"/>
<path d="M2340 1222 c0 -5 7 -9 15 -9 8 0 12 4 9 9 -3 4 -9 8 -15 8 -5 0 -9
-4 -9 -8z"/>
<path d="M2396 1218 c3 -4 11 -5 19 -1 21 7 19 12 -4 10 -11 0 -18 -5 -15 -9z"/>
<path d="M2432 1214 c-7 -8 -8 -14 -3 -14 10 0 25 19 20 25 -2 1 -10 -3 -17
-11z"/>
<path d="M779 1208 c-6 -21 -5 -37 2 -32 5 3 6 10 3 16 -5 7 -1 9 9 5 10 -3
17 -2 17 3 0 8 -28 15 -31 8z"/>
<path d="M2310 1200 c0 -5 5 -10 10 -10 6 0 10 5 10 10 0 6 -4 10 -10 10 -5 0
-10 -4 -10 -10z"/>
<path d="M2374 1195 c-3 -8 -3 -18 0 -23 3 -6 -1 -12 -9 -16 -8 -3 -15 -10
-15 -16 0 -5 8 -3 19 6 11 10 17 24 13 37 -4 15 -2 18 8 12 9 -5 11 -4 6 3
-10 16 -15 15 -22 -3z"/>
<path d="M816 1185 c-3 -8 -1 -15 4 -15 6 0 10 7 10 15 0 8 -2 15 -4 15 -2 0
-6 -7 -10 -15z"/>
<path d="M2336 1185 c-3 -8 -1 -15 4 -15 6 0 10 7 10 15 0 8 -2 15 -4 15 -2 0
-6 -7 -10 -15z"/>
<path d="M741 1174 c0 -11 3 -14 6 -6 3 7 2 16 -1 19 -3 4 -6 -2 -5 -13z"/>
<path d="M2417 1173 c5 -12 3 -14 -7 -8 -9 5 -11 4 -6 -4 4 -6 12 -9 17 -6 12
8 12 35 -1 35 -5 0 -6 -7 -3 -17z"/>
<path d="M2295 1170 c-7 -12 19 -24 37 -17 7 3 3 6 -10 6 -13 1 -20 5 -17 11
3 6 4 10 1 10 -3 0 -8 -5 -11 -10z"/>
<path d="M790 1160 c0 -6 7 -10 15 -10 8 0 15 2 15 4 0 2 -7 6 -15 10 -8 3
-15 1 -15 -4z"/>
<path d="M772 1140 c0 -14 2 -19 5 -12 2 6 2 18 0 25 -3 6 -5 1 -5 -13z"/>
<path d="M866 1145 c-11 -8 -16 -15 -10 -15 5 0 18 7 28 15 11 8 16 15 10 15
-5 0 -18 -7 -28 -15z"/>
<path d="M900 1140 c-12 -7 -10 -9 7 -7 12 0 19 5 17 9 -6 10 -6 10 -24 -2z"/>
<path d="M945 1139 c-6 -8 -4 -10 5 -4 9 5 10 1 6 -16 -6 -21 -6 -22 5 -6 7
13 8 22 1 29 -6 6 -12 6 -17 -3z"/>
<path d="M2390 1144 c0 -6 6 -17 14 -23 12 -10 17 -8 26 11 10 21 10 22 -4 5
-14 -18 -15 -18 -25 0 -6 10 -11 13 -11 7z"/>
<path d="M2310 1136 c0 -3 9 -10 20 -16 11 -6 20 -8 20 -6 0 3 -9 10 -20 16
-11 6 -20 8 -20 6z"/>
<path d="M790 1120 c0 -5 5 -12 10 -15 6 -3 10 -1 10 5 0 6 6 8 13 4 6 -4 8
-3 4 1 -10 12 -37 15 -37 5z"/>
<path d="M2268 1123 c6 -2 18 -2 25 0 6 3 1 5 -13 5 -14 0 -19 -2 -12 -5z"/>
<path d="M837 1107 c-3 -8 -2 -20 3 -26 5 -9 8 -4 8 13 0 29 -3 32 -11 13z"/>
<path d="M913 1094 c0 -17 2 -22 7 -13 5 6 6 18 3 26 -8 19 -10 16 -10 -13z"/>
<path d="M2357 1107 c-3 -8 -2 -20 3 -26 5 -9 8 -4 8 13 0 29 -3 32 -11 13z"/>
<path d="M774 1094 c1 -9 11 -21 22 -26 18 -9 18 -8 2 5 -10 8 -15 16 -12 19
3 4 1 9 -4 12 -6 3 -9 -1 -8 -10z"/>
<path d="M2256 1095 c4 -8 8 -15 10 -15 2 0 4 7 4 15 0 8 -4 15 -10 15 -5 0
-7 -7 -4 -15z"/>
<path d="M2292 1093 c2 -10 12 -18 23 -18 11 1 24 -4 28 -10 5 -6 7 -4 4 5 -2
8 -14 14 -26 14 -15 -1 -20 3 -17 12 3 8 1 14 -5 14 -6 0 -9 -8 -7 -17z"/>
<path d="M2436 1095 c4 -8 8 -15 10 -15 2 0 4 7 4 15 0 8 -4 15 -10 15 -5 0
-7 -7 -4 -15z"/>
<path d="M868 1093 c6 -2 18 -2 25 0 6 3 1 5 -13 5 -14 0 -19 -2 -12 -5z"/>
<path d="M2388 1093 c7 -3 16 -2 19 1 4 3 -2 6 -13 5 -11 0 -14 -3 -6 -6z"/>
<path d="M816 1062 c0 -20 6 -27 20 -27 10 0 22 -7 26 -15 6 -11 7 -10 5 5 -2
14 -9 19 -24 17 -17 -2 -20 1 -16 16 2 11 1 22 -4 25 -5 3 -8 -7 -7 -21z"/>
<path d="M935 1081 c-6 -11 13 -26 22 -17 4 3 1 6 -6 6 -7 0 -9 5 -6 10 3 6 4
10 1 10 -3 0 -7 -4 -11 -9z"/>
<path d="M2237 1083 c-4 -3 -7 -11 -7 -17 0 -6 5 -5 12 2 6 6 9 14 7 17 -3 3
-9 2 -12 -2z"/>
<path d="M2410 1080 c-9 -6 -10 -10 -3 -10 6 0 15 5 18 10 8 12 4 12 -15 0z"/>
<path d="M750 1071 c13 -9 12 -12 -5 -26 -19 -16 -19 -16 3 -5 25 12 25 31 1
38 -11 3 -11 2 1 -7z"/>
<path d="M870 1056 c7 -7 14 -6 21 1 9 9 7 12 -9 10 -14 -1 -18 -5 -12 -11z"/>
<path d="M976 1055 c4 -8 8 -15 10 -15 2 0 4 7 4 15 0 8 -4 15 -10 15 -5 0 -7
-7 -4 -15z"/>
<path d="M2170 1059 c-12 -8 -10 -9 7 -4 19 5 22 3 17 -12 -5 -14 -4 -15 4 -3
19 25 0 38 -28 19z"/>
<path d="M2418 1058 c-9 -5 -6 -7 9 -5 12 2 25 6 28 8 8 9 -23 6 -37 -3z"/>
<path d="M2494 1053 c2 -10 11 -19 22 -20 16 -2 16 -1 1 3 -9 3 -15 9 -12 14
3 5 1 11 -4 14 -5 4 -8 -2 -7 -11z"/>
<path d="M709 1043 c-13 -16 -12 -17 4 -4 9 7 17 15 17 17 0 8 -8 3 -21 -13z"/>
<path d="M2252 1055 c4 -4 0 -13 -9 -20 -13 -10 -14 -13 -2 -20 8 -5 11 -5 7
0 -4 4 0 13 9 20 13 10 14 13 2 20 -8 5 -11 5 -7 0z"/>
<path d="M2300 1051 c0 -7 -5 -9 -12 -5 -7 5 -8 3 -3 -5 5 -9 10 -10 18 -2 6
6 8 14 4 18 -4 3 -7 1 -7 -6z"/>
<path d="M775 1041 c-3 -5 0 -13 6 -17 7 -4 9 -3 5 4 -3 5 0 13 6 15 9 4 10 6
1 6 -6 1 -14 -3 -18 -8z"/>
<path d="M888 1025 c-8 -17 -7 -18 4 -5 7 9 20 14 30 12 9 -2 18 1 21 5 3 4
-6 8 -20 8 -15 0 -29 -8 -35 -20z"/>
<path d="M956 1033 c-6 -14 -5 -15 5 -6 7 7 10 15 7 18 -3 3 -9 -2 -12 -12z"/>
<path d="M2213 1035 c-3 -9 -3 -19 1 -22 3 -3 -2 -11 -11 -18 -17 -13 -10 -35
10 -35 7 0 6 4 -3 10 -13 9 -13 11 -1 19 8 5 15 21 16 35 1 30 -3 33 -12 11z"/>
<path d="M2454 1039 c-4 -7 -3 -9 4 -5 5 3 12 0 15 -6 2 -7 7 -10 11 -7 4 3 0
12 -8 18 -11 9 -16 9 -22 0z"/>
<path d="M1013 1025 c2 -12 -7 -27 -23 -37 -14 -10 -20 -18 -15 -18 6 0 20 8
31 18 17 13 20 22 13 37 l-9 20 3 -20z"/>
<path d="M2427 1027 c-3 -8 1 -14 8 -14 7 0 11 6 8 14 -3 7 -6 13 -8 13 -2 0
-5 -6 -8 -13z"/>
<path d="M975 1020 c-3 -5 -1 -10 4 -10 6 0 11 5 11 10 0 6 -2 10 -4 10 -3 0
-8 -4 -11 -10z"/>
<path d="M2265 1020 c-4 -6 -3 -10 2 -9 21 4 34 -2 27 -13 -4 -7 -3 -8 4 -4
16 10 15 14 -7 26 -14 7 -22 7 -26 0z"/>
<path d="M2315 1020 c3 -5 8 -10 11 -10 2 0 4 5 4 10 0 6 -5 10 -11 10 -5 0
-7 -4 -4 -10z"/>
<path d="M2540 1026 c0 -2 8 -10 18 -17 15 -13 16 -12 3 4 -13 16 -21 21 -21
13z"/>
<path d="M820 1006 c0 -2 7 -6 15 -10 8 -3 15 -1 15 4 0 6 -7 10 -15 10 -8 0
-15 -2 -15 -4z"/>
<path d="M910 999 c0 -5 5 -7 10 -4 6 3 10 8 10 11 0 2 -4 4 -10 4 -5 0 -10
-5 -10 -11z"/>
<path d="M950 1000 c8 -5 20 -10 25 -10 6 0 3 5 -5 10 -8 5 -19 10 -25 10 -5
0 -3 -5 5 -10z"/>
<path d="M2166 998 c3 -5 10 -6 15 -3 13 9 11 12 -6 12 -8 0 -12 -4 -9 -9z"/>
<path d="M2334 999 c-3 -6 -2 -15 3 -20 5 -5 9 -1 9 11 0 23 -2 24 -12 9z"/>
<path d="M2454 998 c-3 -4 5 -5 17 -3 30 6 36 14 9 12 -12 -1 -24 -5 -26 -9z"/>
<path d="M2516 999 c3 -5 10 -7 15 -4 16 11 10 -7 -8 -22 -16 -13 -16 -13 5
-3 26 13 25 32 -1 36 -9 1 -15 -2 -11 -7z"/>
<path d="M862 980 c0 -14 2 -19 5 -12 2 6 2 18 0 25 -3 6 -5 1 -5 -13z"/>
<path d="M894 976 c1 -11 9 -20 19 -22 9 -1 15 2 11 7 -3 5 -9 7 -14 4 -5 -3
-10 3 -13 12 -3 15 -4 15 -3 -1z"/>
<path d="M2270 991 c0 -10 19 -25 25 -20 1 2 -3 10 -11 17 -8 7 -14 8 -14 3z"/>
<path d="M930 980 c0 -5 5 -10 10 -10 6 0 10 5 10 10 0 6 -4 10 -10 10 -5 0
-10 -4 -10 -10z"/>
<path d="M1020 980 c-12 -7 -10 -9 7 -7 12 0 19 5 17 9 -6 10 -6 10 -24 -2z"/>
<path d="M2233 975 c0 -8 4 -15 9 -15 4 0 8 4 8 9 0 6 -4 12 -8 15 -5 3 -9 -1
-9 -9z"/>
<path d="M2490 979 c0 -5 5 -7 10 -4 6 3 10 8 10 11 0 2 -4 4 -10 4 -5 0 -10
-5 -10 -11z"/>
<path d="M2566 977 c3 -10 9 -15 12 -12 3 3 0 11 -7 18 -10 9 -11 8 -5 -6z"/>
<path d="M830 960 c-13 -8 -12 -10 3 -10 9 0 17 5 17 10 0 12 -1 12 -20 0z"/>
<path d="M2310 960 c0 -5 5 -10 10 -10 6 0 10 5 10 10 0 6 -4 10 -10 10 -5 0
-10 -4 -10 -10z"/>
<path d="M2590 959 c0 -5 5 -7 10 -4 6 3 10 8 10 11 0 2 -4 4 -10 4 -5 0 -10
-5 -10 -11z"/>
<path d="M948 953 c6 -2 9 -10 6 -15 -4 -7 -2 -8 4 -4 18 11 14 26 -5 25 -11
0 -13 -3 -5 -6z"/>
<path d="M990 949 c0 -5 5 -7 10 -4 6 3 10 8 10 11 0 2 -4 4 -10 4 -5 0 -10
-5 -10 -11z"/>
<path d="M1030 951 c0 -10 19 -25 25 -20 1 2 -3 10 -11 17 -8 7 -14 8 -14 3z"/>
<path d="M795 940 c-3 -5 -1 -10 4 -10 6 0 11 5 11 10 0 6 -2 10 -4 10 -3 0
-8 -4 -11 -10z"/>
<path d="M866 939 c3 -5 9 -7 14 -4 4 3 11 0 13 -5 3 -6 4 -5 3 1 -1 7 -10 13
-19 15 -9 1 -15 -2 -11 -7z"/>
<path d="M2212 934 c2 -8 7 -14 12 -14 5 1 13 -4 18 -12 8 -10 9 -10 5 2 -2 8
-10 14 -17 12 -8 -2 -10 3 -7 13 4 8 2 15 -4 15 -6 0 -9 -7 -7 -16z"/>
<path d="M2250 940 c0 -5 5 -10 10 -10 6 0 10 5 10 10 0 6 -4 10 -10 10 -5 0
-10 -4 -10 -10z"/>
<path d="M2285 940 c3 -5 8 -10 11 -10 2 0 4 5 4 10 0 6 -5 10 -11 10 -5 0 -7
-4 -4 -10z"/>
<path d="M2315 929 c-4 -6 -5 -12 -2 -15 2 -3 7 2 10 11 7 17 1 20 -8 4z"/>
<path d="M910 920 c0 -5 6 -7 14 -4 11 4 13 -1 10 -18 -4 -21 -3 -21 5 -3 4
11 7 23 4 28 -6 10 -33 9 -33 -3z"/>
<path d="M990 920 c0 -5 5 -10 10 -10 6 0 10 5 10 10 0 6 -4 10 -10 10 -5 0
-10 -4 -10 -10z"/>
<path d="M955 900 c-3 -6 1 -7 9 -4 18 7 21 14 7 14 -6 0 -13 -4 -16 -10z"/>
<path d="M1032 890 c7 -10 14 -18 15 -16 6 6 -9 36 -18 36 -5 0 -4 -9 3 -20z"/>
<path d="M1065 900 c-3 -5 -1 -10 4 -10 6 0 11 5 11 10 0 6 -2 10 -4 10 -3 0
-8 -4 -11 -10z"/>
<path d="M2275 900 c-3 -5 -2 -10 4 -10 5 0 13 5 16 10 3 6 2 10 -4 10 -5 0
-13 -4 -16 -10z"/>
<path d="M1015 880 c6 -9 -8 -14 -28 -11 -5 1 -6 -3 -2 -9 4 -7 12 -7 26 0 17
9 19 30 3 30 -3 0 -2 -4 1 -10z"/>
<path d="M2295 879 c-4 -6 -5 -12 -2 -15 2 -3 7 2 10 11 7 17 1 20 -8 4z"/>
<path d="M955 860 c-3 -6 1 -13 9 -16 9 -3 13 -11 9 -17 -4 -6 -1 -7 7 -2 10
6 10 11 -3 20 -9 7 -14 15 -10 18 3 4 4 7 0 7 -3 0 -9 -5 -12 -10z"/>
<path d="M1060 859 c0 -5 5 -7 10 -4 6 3 10 8 10 11 0 2 -4 4 -10 4 -5 0 -10
-5 -10 -11z"/>
<path d="M1090 860 c0 -5 5 -10 10 -10 6 0 10 5 10 10 0 6 -4 10 -10 10 -5 0
-10 -4 -10 -10z"/>
<path d="M1036 847 c3 -10 9 -15 12 -12 3 3 0 11 -7 18 -10 9 -11 8 -5 -6z"/>
<path d="M2275 850 c6 -10 4 -12 -11 -6 -15 6 -17 5 -6 -5 9 -9 15 -10 23 -2
8 8 7 13 -2 18 -8 6 -10 4 -4 -5z"/>
<path d="M1004 838 c-4 -7 -3 -8 4 -4 7 4 12 1 12 -8 0 -9 5 -16 10 -16 7 0 7
6 0 20 -12 23 -16 24 -26 8z"/>
<path d="M1110 825 c0 -8 4 -15 10 -15 5 0 7 7 4 15 -4 8 -8 15 -10 15 -2 0
-4 -7 -4 -15z"/>
<path d="M1066 815 c4 -8 8 -15 10 -15 2 0 4 7 4 15 0 8 -4 15 -10 15 -5 0 -7
-7 -4 -15z"/>
<path d="M2236 815 c-9 -26 -7 -32 5 -12 6 10 9 21 6 23 -2 3 -7 -2 -11 -11z"/>
<path d="M1095 800 c6 -10 -6 -14 -35 -11 -13 2 -13 0 -1 -8 17 -11 55 5 46
20 -4 5 -8 9 -11 9 -3 0 -2 -4 1 -10z"/>
<path d="M2259 808 c-5 -18 -2 -55 4 -51 5 3 7 14 4 24 -3 10 0 20 7 23 7 3 7
5 -1 5 -7 1 -13 0 -14 -1z"/>
<path d="M2082 784 c-7 -8 -8 -14 -3 -14 10 0 25 19 20 25 -2 1 -10 -3 -17
-11z"/>
<path d="M2026 778 c3 -4 11 -5 19 -1 21 7 19 12 -4 10 -11 0 -18 -5 -15 -9z"/>
<path d="M2180 775 c-10 -12 -9 -16 4 -21 9 -3 13 -11 9 -17 -4 -6 -1 -7 7 -2
10 6 10 10 -3 20 -12 9 -14 14 -5 23 7 7 9 12 6 12 -3 0 -11 -7 -18 -15z"/>
<path d="M910 761 c0 -6 4 -13 10 -16 6 -3 7 1 4 9 -7 18 -14 21 -14 7z"/>
<path d="M1010 760 c-9 -6 -10 -10 -3 -10 6 0 15 5 18 10 8 12 4 12 -15 0z"/>
<path d="M1049 764 c6 -3 7 -12 4 -20 -3 -8 -1 -14 5 -14 14 0 8 33 -7 36 -6
1 -7 0 -2 -2z"/>
<path d="M1097 749 c4 -13 8 -18 11 -10 2 7 -1 18 -6 23 -8 8 -9 4 -5 -13z"/>
<path d="M1136 762 c-7 -12 12 -38 21 -28 4 5 2 11 -5 13 -6 3 -10 9 -6 14 3
5 3 9 0 9 -3 0 -7 -4 -10 -8z"/>
<path d="M1175 760 c-3 -5 -1 -10 4 -10 6 0 11 5 11 10 0 6 -2 10 -4 10 -3 0
-8 -4 -11 -10z"/>
<path d="M2053 763 c4 -6 3 -13 -2 -15 -5 -1 -3 -9 5 -16 12 -11 13 -9 11 7
-2 11 -7 24 -12 28 -4 5 -5 3 -2 -4z"/>
<path d="M2093 754 c-3 -7 -3 -19 0 -26 3 -7 6 -3 6 10 1 13 5 21 10 17 5 -3
12 -2 15 3 3 5 -2 9 -10 9 -9 0 -18 -6 -21 -13z"/>
<path d="M2299 763 c-1 -5 -1 -12 0 -17 1 -5 -6 -5 -16 -2 -14 6 -15 4 -6 -4
8 -9 16 -9 30 -1 10 6 13 11 5 11 -7 0 -10 5 -7 10 3 6 4 10 1 10 -3 0 -7 -3
-7 -7z"/>
<path d="M893 731 c0 -11 5 -18 9 -15 4 3 5 11 1 19 -7 21 -12 19 -10 -4z"/>
<path d="M2133 735 c0 -8 4 -12 9 -9 4 3 8 9 8 15 0 5 -4 9 -8 9 -5 0 -9 -7
-9 -15z"/>
<path d="M2341 736 c-9 -11 -9 -16 1 -22 7 -4 10 -4 6 1 -4 4 0 14 10 21 9 7
12 14 6 14 -6 0 -17 -6 -23 -14z"/>
<path d="M1190 729 c0 -5 5 -7 10 -4 6 3 10 8 10 11 0 2 -4 4 -10 4 -5 0 -10
-5 -10 -11z"/>
<path d="M2230 736 c0 -2 6 -9 14 -15 11 -9 16 -9 22 0 4 8 3 9 -4 5 -7 -4
-12 -2 -12 3 0 6 -4 11 -10 11 -5 0 -10 -2 -10 -4z"/>
<path d="M1015 720 c-3 -6 1 -7 9 -4 18 7 21 14 7 14 -6 0 -13 -4 -16 -10z"/>
<path d="M1070 720 c-13 -8 -12 -10 3 -10 9 0 17 5 17 10 0 12 -1 12 -20 0z"/>
<path d="M2030 720 c-13 -8 -12 -10 3 -10 9 0 17 5 17 10 0 12 -1 12 -20 0z"/>
<path d="M2160 720 c-12 -7 -10 -9 7 -7 12 0 19 5 17 9 -6 10 -6 10 -24 -2z"/>
<path d="M2204 719 c-3 -6 -1 -16 5 -22 9 -9 10 -7 5 7 -6 15 -4 17 6 11 9 -5
11 -4 6 3 -9 15 -13 15 -22 1z"/>
<path d="M2310 721 c0 -6 4 -13 10 -16 6 -3 7 1 4 9 -7 18 -14 21 -14 7z"/>
<path d="M2378 718 c5 -5 16 -8 23 -6 8 3 3 7 -10 11 -17 4 -21 3 -13 -5z"/>
<path d="M1102 700 c0 -14 2 -19 5 -12 2 6 2 18 0 25 -3 6 -5 1 -5 -13z"/>
<path d="M986 702 c-3 -5 1 -9 9 -9 8 0 12 4 9 9 -3 4 -7 8 -9 8 -2 0 -6 -4
-9 -8z"/>
<path d="M1035 700 c3 -5 8 -10 11 -10 2 0 4 5 4 10 0 6 -5 10 -11 10 -5 0 -7
-4 -4 -10z"/>
<path d="M1140 699 c0 -5 5 -7 10 -4 6 3 10 8 10 11 0 2 -4 4 -10 4 -5 0 -10
-5 -10 -11z"/>
<path d="M2275 700 c3 -6 1 -10 -6 -10 -7 0 -10 -3 -6 -6 3 -3 13 -2 22 4 16
8 16 9 1 15 -10 4 -15 3 -11 -3z"/>
<path d="M2351 700 c-9 -5 -4 -7 13 -7 29 0 32 2 13 10 -8 3 -20 2 -26 -3z"/>
<path d="M2410 700 c-9 -6 -10 -10 -3 -10 6 0 15 5 18 10 8 12 4 12 -15 0z"/>
<path d="M2451 693 c-1 -18 13 -23 29 -11 12 8 12 9 -2 5 -9 -3 -19 -1 -22 6
-3 9 -5 9 -5 0z"/>
<path d="M1015 679 c-4 -6 -4 -13 -1 -16 3 -4 6 -1 6 6 0 7 5 9 12 5 7 -4 8
-3 4 4 -9 15 -13 15 -21 1z"/>
<path d="M1057 684 c-8 -8 3 -34 15 -34 6 0 4 8 -3 17 -12 15 -12 16 4 10 9
-3 17 -2 17 3 0 11 -23 14 -33 4z"/>
<path d="M1975 679 c-4 -6 -5 -12 -2 -15 2 -3 7 2 10 11 7 17 1 20 -8 4z"/>
<path d="M2015 681 c-3 -5 0 -13 6 -17 8 -5 9 -3 4 6 -6 10 -4 12 8 7 10 -3
17 -2 17 3 0 13 -27 13 -35 1z"/>
<path d="M2310 680 c0 -5 5 -10 10 -10 6 0 10 5 10 10 0 6 -4 10 -10 10 -5 0
-10 -4 -10 -10z"/>
<path d="M2430 684 c0 -13 18 -39 24 -34 2 3 -2 14 -10 24 -8 11 -14 16 -14
10z"/>
<path d="M980 665 c0 -8 0 -18 0 -22 0 -5 8 -8 18 -8 9 0 20 -7 24 -15 6 -11
7 -10 5 5 -2 14 -9 19 -24 17 -17 -2 -20 1 -16 18 3 11 3 20 -1 20 -3 0 -6 -7
-6 -15z"/>
<path d="M1937 661 c-3 -11 -2 -22 1 -25 9 -10 32 -7 32 4 0 5 -6 7 -14 4 -11
-4 -13 0 -9 15 3 12 3 21 0 21 -2 0 -7 -9 -10 -19z"/>
<path d="M2356 665 c-3 -8 -1 -15 4 -15 6 0 10 7 10 15 0 8 -2 15 -4 15 -2 0
-6 -7 -10 -15z"/>
<path d="M2397 659 c7 -25 20 -33 29 -18 5 8 3 9 -6 4 -10 -6 -12 -4 -7 8 3 8
0 18 -7 20 -10 4 -12 -1 -9 -14z"/>
<path d="M1106 657 c3 -10 9 -15 12 -12 3 3 0 11 -7 18 -10 9 -11 8 -5 -6z"/>
<path d="M1990 660 c0 -5 5 -10 11 -10 5 0 7 5 4 10 -3 6 -8 10 -11 10 -2 0
-4 -4 -4 -10z"/>
<path d="M2059 663 c-1 -5 -1 -12 0 -17 1 -5 -5 -6 -14 -3 -8 4 -15 2 -15 -4
0 -18 33 -5 36 14 1 9 0 17 -2 17 -2 0 -5 -3 -5 -7z"/>
<path d="M2480 655 c-7 -9 -11 -17 -9 -20 3 -2 10 5 17 15 14 24 10 26 -8 5z"/>
<path d="M1036 647 c3 -10 9 -15 12 -12 3 3 0 11 -7 18 -10 9 -11 8 -5 -6z"/>
<path d="M2375 641 c-6 -11 13 -26 22 -17 4 3 1 6 -6 6 -7 0 -9 5 -6 10 3 6 4
10 1 10 -3 0 -7 -4 -11 -9z"/>
<path d="M2495 639 c-4 -6 -4 -13 -1 -16 3 -4 6 -1 6 7 0 10 4 10 18 -1 15
-13 16 -12 3 4 -16 20 -18 20 -26 6z"/>
<path d="M1151 633 c4 -21 -2 -34 -13 -27 -7 4 -8 3 -4 -4 10 -16 14 -15 26 7
7 14 7 22 0 26 -6 4 -10 3 -9 -2z"/>
<path d="M1981 624 c0 -11 3 -14 6 -6 3 7 2 16 -1 19 -3 4 -6 -2 -5 -13z"/>
<path d="M2012 620 c0 -14 2 -19 5 -12 2 6 2 18 0 25 -3 6 -5 1 -5 -13z"/>
<path d="M1060 619 c0 -5 5 -7 10 -4 6 3 10 8 10 11 0 2 -4 4 -10 4 -5 0 -10
-5 -10 -11z"/>
<path d="M1090 620 c0 -5 5 -10 10 -10 6 0 10 5 10 10 0 6 -4 10 -10 10 -5 0
-10 -4 -10 -10z"/>
<path d="M1300 626 c0 -2 7 -6 15 -10 8 -3 15 -1 15 4 0 6 -7 10 -15 10 -8 0
-15 -2 -15 -4z"/>
<path d="M1900 626 c0 -2 7 -6 15 -10 8 -3 15 -1 15 4 0 6 -7 10 -15 10 -8 0
-15 -2 -15 -4z"/>
<path d="M2430 620 c0 -6 7 -10 15 -10 8 0 15 2 15 4 0 2 -7 6 -15 10 -8 3
-15 1 -15 -4z"/>
<path d="M1175 611 c-8 -13 10 -22 29 -15 12 5 15 2 10 -10 -3 -9 -2 -16 4
-16 6 0 9 8 7 18 -1 11 -10 16 -24 15 -13 -2 -20 1 -16 7 3 6 4 10 1 10 -3 0
-7 -4 -11 -9z"/>
<path d="M980 606 c0 -2 7 -6 15 -10 8 -3 15 -1 15 4 0 6 -7 10 -15 10 -8 0
-15 -2 -15 -4z"/>
<path d="M1290 590 c-6 -11 -8 -20 -6 -20 3 0 10 9 16 20 6 11 8 20 6 20 -3 0
-10 -9 -16 -20z"/>
<path d="M1335 601 c-3 -5 0 -13 6 -17 7 -4 9 -3 5 4 -3 5 0 13 6 15 9 4 10 6
1 6 -6 1 -14 -3 -18 -8z"/>
<path d="M1940 606 c0 -2 7 -6 15 -10 8 -3 15 -1 15 4 0 6 -7 10 -15 10 -8 0
-15 -2 -15 -4z"/>
<path d="M2030 600 c0 -5 7 -7 15 -4 8 4 15 8 15 10 0 2 -7 4 -15 4 -8 0 -15
-4 -15 -10z"/>
<path d="M1110 590 c0 -5 5 -10 11 -10 5 0 7 5 4 10 -3 6 -8 10 -11 10 -2 0
-4 -4 -4 -10z"/>
<path d="M1977 581 c-3 -12 0 -24 5 -28 6 -3 8 -1 4 5 -3 5 -2 12 4 14 5 2 6
9 1 16 -6 10 -10 9 -14 -7z"/>
<path d="M980 580 c8 -5 20 -10 25 -10 6 0 3 5 -5 10 -8 5 -19 10 -25 10 -5 0
-3 -5 5 -10z"/>
<path d="M1060 575 c0 -9 -6 -12 -15 -9 -8 4 -15 2 -15 -4 0 -14 33 -8 38 6 2
7 9 9 14 6 7 -4 8 -2 4 4 -10 17 -26 15 -26 -3z"/>
<path d="M1240 586 c0 -2 7 -7 16 -10 8 -3 12 -2 9 4 -6 10 -25 14 -25 6z"/>
<path d="M1365 580 c-3 -6 1 -7 9 -4 18 7 21 14 7 14 -6 0 -13 -4 -16 -10z"/>
<path d="M1936 575 c4 -8 8 -15 10 -15 2 0 4 7 4 15 0 8 -4 15 -10 15 -5 0 -7
-7 -4 -15z"/>
<path d="M2050 575 c0 -8 2 -15 4 -15 2 0 6 7 10 15 3 8 1 15 -4 15 -6 0 -10
-7 -10 -15z"/>
<path d="M970 560 c0 -5 5 -10 11 -10 5 0 7 5 4 10 -3 6 -8 10 -11 10 -2 0 -4
-4 -4 -10z"/>
<path d="M1120 566 c0 -2 7 -7 16 -10 8 -3 12 -2 9 4 -6 10 -25 14 -25 6z"/>
<path d="M1161 552 c-6 -12 -6 -23 0 -33 8 -12 10 -12 8 1 -3 30 1 41 13 34 7
-4 8 -3 4 4 -10 16 -14 15 -25 -6z"/>
<path d="M1230 560 c-13 -8 -12 -10 3 -10 9 0 17 5 17 10 0 12 -1 12 -20 0z"/>
<path d="M1295 559 c-4 -6 -5 -12 -2 -15 2 -3 7 2 10 11 7 17 1 20 -8 4z"/>
<path d="M1389 551 c6 -10 7 -22 3 -26 -4 -5 -1 -5 6 -1 9 5 9 12 2 27 -6 10
-13 19 -16 19 -2 0 0 -8 5 -19z"/>
<path d="M2015 545 c1 -23 35 -67 35 -45 0 6 -6 13 -14 16 -8 3 -12 13 -9 24
3 10 1 20 -4 23 -5 3 -8 -5 -8 -18z"/>
<path d="M2070 560 c0 -5 5 -10 11 -10 5 0 7 5 4 10 -3 6 -8 10 -11 10 -2 0
-4 -4 -4 -10z"/>
<path d="M1010 545 c0 -8 4 -15 10 -15 5 0 7 7 4 15 -4 8 -8 15 -10 15 -2 0
-4 -7 -4 -15z"/>
<path d="M1075 551 c-3 -5 -2 -12 3 -15 5 -3 9 1 9 9 0 17 -3 19 -12 6z"/>
<path d="M1261 544 c0 -11 3 -14 6 -6 3 7 2 16 -1 19 -3 4 -6 -2 -5 -13z"/>
<path d="M1430 551 c0 -6 4 -13 10 -16 6 -3 7 1 4 9 -7 18 -14 21 -14 7z"/>
<path d="M1108 543 c7 -3 16 -2 19 1 4 3 -2 6 -13 5 -11 0 -14 -3 -6 -6z"/>
<path d="M1191 540 c-9 -5 -4 -7 13 -7 29 0 32 2 13 10 -8 3 -20 2 -26 -3z"/>
<path d="M1995 539 c-4 -6 -5 -12 -2 -15 2 -3 7 2 10 11 7 17 1 20 -8 4z"/>
<path d="M2054 534 c3 -18 34 -39 43 -30 4 3 1 6 -6 6 -7 0 -9 4 -6 10 4 6 -1
7 -11 3 -11 -4 -15 -3 -10 5 3 6 2 13 -3 16 -5 4 -8 -1 -7 -10z"/>
<path d="M1054 532 c5 -8 -1 -12 -16 -13 -18 -1 -19 -2 -4 -6 23 -6 43 12 25
22 -8 5 -10 4 -5 -3z"/>
<path d="M1755 529 c-4 -6 -5 -12 -2 -15 2 -3 7 2 10 11 7 17 1 20 -8 4z"/>
<path d="M1084 514 c-18 -14 -18 -15 4 -4 12 6 22 13 22 15 0 8 -5 6 -26 -11z"/>
<path d="M1119 513 c-11 -15 -11 -16 1 -6 11 10 16 9 27 -5 13 -15 13 -15 3 6
-13 27 -14 27 -31 5z"/>
<path d="M1235 519 c-4 -6 -5 -12 -2 -15 2 -3 7 2 10 11 7 17 1 20 -8 4z"/>
<path d="M1415 521 c-9 -15 13 -23 32 -11 15 9 14 10 -6 4 -16 -4 -21 -3 -17
5 4 6 5 11 2 11 -3 0 -7 -4 -11 -9z"/>
<path d="M1584 516 c11 -9 24 -16 30 -16 12 0 7 5 -24 19 -24 11 -24 11 -6 -3z"/>
<path d="M1777 523 c-2 -5 -3 -15 -2 -23 0 -8 -6 -21 -15 -28 -13 -11 -11 -11
8 -2 13 6 20 16 16 22 -5 8 -1 9 12 5 18 -7 18 -6 2 6 -10 8 -15 17 -11 20 3
4 4 7 0 7 -3 0 -8 -3 -10 -7z"/>
<path d="M1816 521 c-4 -5 3 -7 14 -4 23 6 26 13 6 13 -8 0 -17 -4 -20 -9z"/>
<path d="M988 513 c7 -3 16 -2 19 1 4 3 -2 6 -13 5 -11 0 -14 -3 -6 -6z"/>
<path d="M1200 511 c0 -6 4 -13 10 -16 6 -3 7 1 4 9 -7 18 -14 21 -14 7z"/>
<path d="M1820 490 c-6 -11 -8 -20 -6 -20 3 0 10 9 16 20 6 11 8 20 6 20 -3 0
-10 -9 -16 -20z"/>
<path d="M1171 493 c-1 -17 16 -25 25 -12 4 7 3 9 -4 5 -5 -3 -13 0 -15 6 -4
9 -6 10 -6 1z"/>
<path d="M1735 490 c6 -10 4 -12 -7 -7 -16 6 -20 -17 -5 -28 4 -3 5 -2 2 2 -3
3 3 11 12 18 13 9 13 14 3 20 -9 6 -11 4 -5 -5z"/>
<path d="M974 478 c-4 -7 -3 -8 4 -4 12 7 16 -4 13 -34 -2 -13 0 -13 8 -1 6
10 6 21 0 33 -11 21 -15 22 -25 6z"/>
<path d="M1016 481 c-4 -5 3 -7 14 -4 23 6 26 13 6 13 -8 0 -17 -4 -20 -9z"/>
<path d="M1068 483 c6 -2 18 -2 25 0 6 3 1 5 -13 5 -14 0 -19 -2 -12 -5z"/>
<path d="M1116 479 c3 -5 10 -6 16 -3 8 5 9 1 5 -10 -5 -11 -3 -15 5 -10 7 5
9 2 5 -9 -4 -10 -2 -14 7 -11 7 3 13 11 13 19 0 8 -4 12 -8 9 -4 -2 -9 1 -11
8 -2 6 -12 12 -21 14 -9 1 -15 -2 -11 -7z"/>
<path d="M1415 479 c-4 -6 -5 -12 -2 -15 2 -3 7 2 10 11 7 17 1 20 -8 4z"/>
<path d="M1558 483 c7 -3 16 -2 19 1 4 3 -2 6 -13 5 -11 0 -14 -3 -6 -6z"/>
<path d="M2055 481 c-3 -5 0 -13 6 -17 7 -4 9 -3 5 4 -3 5 0 13 6 15 9 4 10 6
1 6 -6 1 -14 -3 -18 -8z"/>
<path d="M2094 482 c3 -5 0 -13 -6 -15 -9 -4 -10 -6 -1 -6 17 -1 25 16 12 25
-7 4 -9 3 -5 -4z"/>
<path d="M1056 455 c4 -10 0 -13 -14 -10 -14 2 -26 -5 -36 -20 -14 -21 -14
-24 -1 -19 8 4 15 12 15 19 0 7 10 12 22 11 14 -1 24 6 26 17 2 9 -1 17 -7 17
-6 0 -8 -7 -5 -15z"/>
<path d="M1090 455 c0 -8 2 -15 4 -15 2 0 6 7 10 15 3 8 1 15 -4 15 -6 0 -10
-7 -10 -15z"/>
<path d="M1570 455 c0 -8 2 -15 4 -15 2 0 6 7 10 15 3 8 1 15 -4 15 -6 0 -10
-7 -10 -15z"/>
<path d="M1794 462 c3 -6 1 -12 -6 -14 -7 -3 -5 -7 6 -11 11 -5 15 -3 10 5 -5
8 -2 9 9 5 24 -9 21 0 -4 14 -13 6 -19 7 -15 1z"/>
<path d="M950 450 c-8 -5 -10 -10 -5 -10 6 0 17 5 25 10 8 5 11 10 5 10 -5 0
-17 -5 -25 -10z"/>
<path d="M1110 440 c0 -5 5 -10 11 -10 5 0 7 5 4 10 -3 6 -8 10 -11 10 -2 0
-4 -4 -4 -10z"/>
<path d="M1748 443 c7 -3 16 -2 19 1 4 3 -2 6 -13 5 -11 0 -14 -3 -6 -6z"/>
<path d="M930 419 c0 -5 5 -7 10 -4 6 3 10 8 10 11 0 2 -4 4 -10 4 -5 0 -10
-5 -10 -11z"/>
<path d="M1080 420 c8 -5 20 -10 25 -10 6 0 3 5 -5 10 -8 5 -19 10 -25 10 -5
0 -3 -5 5 -10z"/>
<path d="M1571 413 c7 -12 15 -20 18 -17 3 2 -3 12 -13 22 -17 16 -18 16 -5
-5z"/>
<path d="M1776 415 c4 -8 8 -15 10 -15 2 0 4 7 4 15 0 8 -4 15 -10 15 -5 0 -7
-7 -4 -15z"/>
<path d="M957 413 c-4 -3 -7 -11 -7 -17 0 -6 5 -5 12 2 6 6 9 14 7 17 -3 3 -9
2 -12 -2z"/>
<path d="M1070 400 c0 -5 5 -10 11 -10 5 0 7 5 4 10 -3 6 -8 10 -11 10 -2 0
-4 -4 -4 -10z"/>
<path d="M901 384 c0 -11 3 -14 6 -6 3 7 2 16 -1 19 -3 4 -6 -2 -5 -13z"/>
<path d="M930 385 c0 -8 4 -15 10 -15 5 0 7 7 4 15 -4 8 -8 15 -10 15 -2 0 -4
-7 -4 -15z"/>
<path d="M970 380 c0 -5 5 -10 10 -10 6 0 10 5 10 10 0 6 -4 10 -10 10 -5 0
-10 -4 -10 -10z"/>
<path d="M1005 380 c3 -5 8 -10 11 -10 2 0 4 5 4 10 0 6 -5 10 -11 10 -5 0 -7
-4 -4 -10z"/>
<path d="M1040 375 c-7 -9 -11 -17 -9 -20 3 -2 10 5 17 15 14 24 10 26 -8 5z"/>
<path d="M915 349 c-4 -6 -5 -12 -2 -15 2 -3 7 2 10 11 7 17 1 20 -8 4z"/>
<path d="M940 356 c0 -2 7 -6 15 -10 8 -3 15 -1 15 4 0 6 -7 10 -15 10 -8 0
-15 -2 -15 -4z"/>
<path d="M993 339 c-2 -23 13 -34 23 -18 4 8 3 9 -4 5 -7 -4 -12 -3 -12 3 0 5
5 11 12 13 8 3 7 6 -3 10 -10 4 -15 -1 -16 -13z"/>
<path d="M950 311 c0 -5 5 -13 10 -16 6 -3 10 -2 10 4 0 5 -4 13 -10 16 -5 3
-10 2 -10 -4z"/>
<path d="M915 280 c3 -37 19 -58 30 -39 5 8 4 10 -3 5 -12 -7 -13 -4 -16 33 0
11 -4 22 -7 26 -4 3 -5 -8 -4 -25z"/>
<path d="M976 281 c-4 -5 3 -7 14 -4 23 6 26 13 6 13 -8 0 -17 -4 -20 -9z"/>
<path d="M958 257 c12 -7 19 -17 15 -22 -4 -4 -2 -5 6 0 12 7 11 10 -4 22 -11
7 -24 13 -29 13 -6 -1 -1 -6 12 -13z"/>
<path d="M895 240 c-3 -5 -1 -10 4 -10 6 0 11 5 11 10 0 6 -2 10 -4 10 -3 0
-8 -4 -11 -10z"/>
<path d="M957 214 c4 -11 3 -15 -5 -10 -6 3 -13 2 -16 -3 -4 -5 2 -8 11 -7 20
3 28 21 14 31 -7 4 -8 0 -4 -11z"/>
<path d="M908 213 c7 -3 16 -2 19 1 4 3 -2 6 -13 5 -11 0 -14 -3 -6 -6z"/>
</g>
</svg>
